fontCallback.success({"glyphs":{"ο":{"x_min":41,"x_max":710,"ha":753,"o":"m 371 -15 q 131 78 222 -15 q 41 322 41 172 q 133 573 41 474 q 378 672 225 672 q 619 574 528 672 q 710 326 710 477 q 617 80 710 175 q 371 -15 525 -15 m 377 619 q 226 530 272 619 q 180 327 180 441 q 227 125 180 216 q 375 35 274 35 q 524 123 478 35 q 570 326 570 211 q 524 529 570 440 q 377 619 479 619 "},"S":{"x_min":50,"x_max":639,"ha":699,"o":"m 88 208 q 179 88 122 131 q 318 46 237 46 q 457 98 397 46 q 518 227 518 150 q 401 400 518 336 q 184 498 293 448 q 68 688 68 566 q 156 880 68 811 q 370 950 244 950 q 480 936 430 950 q 597 891 530 922 q 570 822 583 858 q 553 756 558 786 l 539 756 q 354 897 502 897 q 231 855 282 897 q 181 742 181 813 q 298 580 181 640 q 519 483 408 531 q 639 286 639 413 q 538 68 639 152 q 301 -15 438 -15 q 166 2 229 -15 q 50 59 104 19 q 68 135 62 104 q 75 205 75 166 l 88 208 "},"/":{"x_min":-36.03125,"x_max":404.15625,"ha":383,"o":"m -36 -125 l 340 1025 l 404 1024 l 28 -126 l -36 -125 "},"Τ":{"x_min":11,"x_max":713,"ha":725,"o":"m 11 839 l 15 884 l 11 932 q 194 927 72 932 q 361 922 316 922 q 544 927 421 922 q 713 932 668 932 q 707 883 707 911 q 707 861 707 870 q 713 834 707 852 q 609 850 666 843 q 504 857 552 857 l 428 857 q 426 767 428 830 q 424 701 424 704 l 428 220 q 442 0 428 122 q 362 8 401 3 q 323 5 344 8 q 282 0 301 2 q 289 132 282 40 q 296 259 296 225 l 296 683 l 296 857 q 11 839 164 857 "},"ϕ":{"x_min":41,"x_max":960,"ha":1006,"o":"m 441 -10 q 162 76 283 -10 q 41 316 41 163 q 162 562 41 470 q 441 654 283 654 q 434 838 441 719 q 427 971 427 957 q 464 965 443 968 q 503 962 485 962 q 540 965 519 962 q 578 970 560 968 q 563 654 563 824 q 839 567 719 654 q 960 324 960 481 q 841 79 960 169 q 563 -10 722 -10 q 570 -201 563 -68 q 578 -371 578 -334 q 505 -362 539 -362 q 465 -365 483 -362 q 427 -372 446 -368 q 434 -161 427 -297 q 441 -10 441 -26 m 563 39 q 757 118 690 39 q 824 330 824 198 q 750 523 824 445 q 564 601 677 601 l 563 319 l 563 39 m 441 319 l 441 601 q 253 523 326 601 q 180 330 180 446 q 245 117 180 195 q 439 39 310 39 l 441 319 "},"y":{"x_min":4.171875,"x_max":665.28125,"ha":664,"o":"m 4 654 l 86 647 l 165 654 q 202 536 188 577 q 241 431 215 495 l 363 129 l 473 413 q 552 654 519 537 q 606 647 583 647 q 665 654 633 647 q 416 125 531 388 q 223 -372 301 -137 l 187 -366 q 141 -366 163 -366 q 112 -372 122 -370 l 290 -22 q 4 654 170 294 "},"Π":{"x_min":108,"x_max":927.453125,"ha":1036,"o":"m 432 846 l 263 846 q 260 634 263 781 q 257 475 257 486 q 262 236 257 395 q 268 0 268 77 q 229 3 255 0 q 188 8 202 8 q 149 3 177 8 q 108 0 121 0 q 117 239 108 70 q 126 465 126 408 q 122 711 126 620 q 108 932 119 803 q 285 926 166 932 q 464 921 405 921 q 695 926 541 921 q 927 932 849 932 q 915 793 921 871 q 909 659 909 716 l 909 504 q 917 245 909 427 q 926 0 926 62 q 887 4 913 0 q 847 8 860 8 q 810 5 827 8 q 768 0 792 2 q 773 259 768 94 q 778 469 778 423 l 778 731 l 773 846 l 432 846 "},"ΐ":{"x_min":-41,"x_max":384,"ha":342,"o":"m 105 333 l 105 520 q 104 566 105 544 q 97 654 103 588 q 141 647 131 648 q 166 647 152 647 q 234 654 196 647 q 225 555 226 599 q 224 437 224 510 l 224 406 q 229 194 224 337 q 234 0 234 51 q 202 3 217 1 q 166 5 186 5 q 128 3 149 5 q 97 0 108 1 q 101 165 97 51 q 105 333 105 279 m 18 865 q 61 846 43 865 q 80 804 80 828 q 61 761 80 779 q 18 743 43 743 q -22 761 -4 743 q -41 804 -41 779 q -22 846 -41 828 q 18 865 -4 865 m 172 929 q 189 969 179 956 q 225 982 199 982 q 256 971 243 982 q 270 941 270 961 q 257 904 270 919 l 149 743 l 117 743 l 172 929 m 324 865 q 366 846 348 865 q 384 804 384 828 q 366 761 384 779 q 324 743 348 743 q 281 761 298 743 q 265 804 265 779 q 281 846 265 828 q 324 865 298 865 "},"g":{"x_min":32,"x_max":672,"ha":688,"o":"m 81 123 q 112 201 81 169 q 193 252 144 233 l 193 262 q 97 329 130 277 q 64 447 64 380 q 141 610 64 549 q 323 672 218 672 q 421 661 357 672 q 500 650 486 651 l 672 654 l 672 582 q 599 592 635 587 q 537 597 563 597 q 607 458 607 548 q 527 294 607 356 q 342 232 447 232 q 291 235 319 232 q 255 239 262 239 q 208 220 228 239 q 188 173 188 201 q 221 120 188 136 q 296 104 254 104 l 427 104 q 603 56 534 104 q 672 -93 672 9 q 560 -299 672 -226 q 309 -372 448 -372 q 115 -327 199 -372 q 32 -183 32 -283 q 76 -62 32 -110 q 193 8 121 -13 q 112 51 143 25 q 81 123 81 77 m 332 278 q 439 332 401 278 q 478 457 478 386 q 441 575 478 525 q 338 625 404 625 q 232 570 271 625 q 194 447 194 515 q 230 328 194 379 q 332 278 266 278 m 337 -316 q 491 -270 423 -316 q 559 -141 559 -224 q 500 -29 559 -62 q 353 3 441 3 q 199 -36 263 3 q 136 -162 136 -76 q 195 -277 136 -238 q 337 -316 255 -316 "},"²":{"x_min":15.28125,"x_max":412.5,"ha":496,"o":"m 297 744 q 270 830 297 795 q 197 866 244 866 q 120 837 149 866 q 83 761 90 808 l 76 759 q 54 802 68 780 q 31 837 40 824 q 210 901 108 901 q 334 862 278 901 q 390 758 390 824 q 282 568 390 656 q 111 428 174 479 l 293 428 q 350 431 316 428 q 412 439 384 434 l 406 397 l 412 356 l 304 361 l 111 361 l 15 355 l 15 378 q 220 567 144 484 q 297 744 297 651 "},"Κ":{"x_min":108,"x_max":856.625,"ha":821,"o":"m 255 314 q 261 132 255 250 q 268 0 268 13 q 229 4 255 0 q 188 8 202 8 q 148 4 174 8 q 108 0 121 0 q 117 239 108 70 q 126 465 126 408 q 122 712 126 621 q 108 932 119 803 q 153 928 124 932 q 188 925 183 925 q 231 928 203 925 q 267 932 259 932 l 255 671 l 255 499 q 480 693 375 586 q 687 932 585 800 q 732 932 710 932 q 777 932 753 932 l 837 932 q 606 727 720 830 q 389 522 493 623 q 525 358 465 426 q 666 202 586 290 q 856 0 747 115 l 746 0 q 692 -1 716 0 q 644 -8 669 -2 q 571 92 610 44 q 477 204 532 140 l 255 459 l 255 314 "},"ë":{"x_min":40,"x_max":646.9375,"ha":681,"o":"m 406 42 q 602 130 523 42 l 621 130 q 613 93 617 112 q 609 47 609 73 q 496 0 558 14 q 369 -15 435 -15 q 130 73 220 -15 q 40 311 40 162 q 126 562 40 456 q 355 669 212 669 q 564 590 481 669 q 646 386 646 512 l 644 331 q 438 333 562 331 q 313 335 315 335 l 179 331 q 235 127 179 212 q 406 42 291 42 m 219 929 q 271 906 249 929 q 294 854 294 884 q 273 800 294 822 q 221 778 252 778 q 166 800 190 778 q 143 854 143 822 q 165 906 143 884 q 219 929 187 929 m 460 929 q 513 906 492 929 q 534 854 534 884 q 513 799 534 820 q 461 778 493 778 q 407 800 429 778 q 385 854 385 822 q 407 906 385 884 q 460 929 429 929 m 513 392 l 513 437 q 470 563 513 509 q 356 618 427 618 q 233 552 271 618 q 183 390 195 487 l 513 392 "},"e":{"x_min":41,"x_max":645.15625,"ha":681,"o":"m 406 42 q 602 130 523 42 l 618 125 q 611 86 614 104 q 609 44 609 67 q 497 0 561 14 q 370 -15 434 -15 q 130 73 220 -15 q 41 311 41 161 q 127 563 41 455 q 356 672 214 672 q 563 592 482 672 q 645 385 645 512 l 643 331 l 313 335 l 179 331 q 235 126 179 210 q 406 42 291 42 m 511 392 l 513 436 q 470 563 513 509 q 356 618 427 618 q 230 553 268 618 q 179 388 191 488 l 511 392 "},"ό":{"x_min":41,"x_max":710,"ha":753,"o":"m 371 -15 q 131 78 222 -15 q 41 322 41 172 q 133 573 41 474 q 378 672 225 672 q 619 574 528 672 q 710 326 710 477 q 617 80 710 175 q 371 -15 525 -15 m 524 943 q 558 974 542 964 q 595 985 574 985 q 632 969 618 985 q 646 932 646 954 q 632 897 646 911 q 591 866 618 883 l 390 743 l 341 743 l 524 943 m 377 619 q 226 530 272 619 q 180 327 180 441 q 227 125 180 216 q 375 35 274 35 q 524 123 478 35 q 570 326 570 211 q 524 529 570 440 q 377 619 479 619 "},"J":{"x_min":-71,"x_max":277,"ha":385,"o":"m 118 -40 q 131 62 128 9 q 135 184 135 115 q 132 462 135 325 q 127 690 130 598 q 111 932 123 782 q 159 928 129 932 q 193 925 189 925 q 238 927 221 925 q 277 932 256 929 q 268 665 277 843 q 260 457 260 487 l 260 165 q 260 107 260 147 q 260 48 260 68 q 169 -155 260 -88 q -62 -222 79 -222 l -71 -180 q 50 -134 1 -166 q 118 -40 100 -102 "},"»":{"x_min":43,"x_max":543,"ha":607,"o":"m 196 322 l 43 607 l 81 645 l 303 322 l 81 0 l 43 37 l 196 322 m 436 322 l 283 607 l 322 645 l 543 322 l 322 0 l 283 37 l 436 322 "},"©":{"x_min":80,"x_max":1058,"ha":1139,"o":"m 816 905 q 992 726 927 841 q 1058 481 1058 611 q 912 138 1058 283 q 567 -6 766 -6 q 225 139 370 -6 q 80 481 80 284 q 224 826 80 681 q 569 971 368 971 q 816 905 698 971 m 569 918 q 263 788 392 918 q 134 481 134 659 q 261 175 134 306 q 566 45 389 45 q 872 174 741 45 q 1004 478 1004 304 q 947 699 1004 596 q 787 859 890 801 q 569 918 684 918 m 570 724 q 441 652 483 724 q 399 490 399 581 q 438 320 399 396 q 560 245 478 245 q 664 278 621 245 q 723 370 707 311 l 798 370 q 720 232 788 283 q 561 181 653 181 q 379 268 446 181 q 313 476 313 355 q 380 694 313 604 q 571 785 447 785 q 717 738 656 785 q 793 610 779 691 l 715 610 q 664 692 705 660 q 570 724 624 724 "},"ώ":{"x_min":39.71875,"x_max":1028.9375,"ha":1068,"o":"m 534 528 l 596 528 l 594 305 q 616 117 594 193 q 722 42 638 42 q 850 118 811 42 q 888 293 888 194 q 829 502 888 409 q 664 654 769 594 l 717 648 q 805 654 766 648 q 967 510 905 606 q 1028 304 1028 413 q 948 81 1028 177 q 744 -15 867 -15 q 622 16 678 -15 q 534 104 566 47 q 445 16 500 48 q 323 -15 389 -15 q 118 83 196 -15 q 39 311 39 182 q 100 511 39 419 q 262 654 161 604 q 303 650 278 651 q 349 648 327 648 l 402 654 q 238 501 296 593 q 179 291 179 409 q 218 116 179 191 q 348 42 257 42 q 419 68 390 42 q 461 138 448 94 q 472 216 469 175 q 475 303 475 257 q 472 420 475 353 q 469 529 470 486 l 534 528 m 681 943 q 714 974 699 964 q 751 985 730 985 q 788 969 774 985 q 802 932 802 954 q 787 896 802 912 q 746 866 773 880 l 547 743 l 498 743 l 681 943 "},"^":{"x_min":0,"x_max":390,"ha":403,"o":"m 150 978 l 239 978 l 390 743 l 344 743 l 195 875 l 49 743 l 0 743 l 150 978 "},"«":{"x_min":48,"x_max":549.390625,"ha":607,"o":"m 152 326 l 309 42 l 268 3 l 48 326 l 268 649 l 309 611 l 152 326 m 394 326 l 549 42 l 509 3 l 288 326 l 509 649 l 549 611 l 394 326 "},"D":{"x_min":108,"x_max":991,"ha":1043,"o":"m 126 465 q 117 704 126 536 q 108 931 108 872 l 210 929 q 350 934 251 929 q 477 939 449 939 q 579 936 553 939 q 709 917 605 934 q 902 775 814 900 q 991 483 991 650 q 852 130 991 261 q 491 0 713 0 l 378 0 l 228 7 l 203 7 q 148 4 173 7 q 108 0 123 1 q 117 239 108 70 q 126 465 126 408 m 402 64 q 724 168 609 64 q 840 479 840 273 q 730 774 840 671 q 428 878 621 878 q 345 873 400 878 q 262 869 289 869 l 255 497 l 255 376 l 262 76 q 332 68 292 72 q 402 64 373 64 "},"w":{"x_min":4.171875,"x_max":1052.78125,"ha":1047,"o":"m 4 655 q 55 648 41 648 q 86 647 69 647 q 165 654 120 647 q 190 540 176 587 q 238 394 204 492 l 329 141 q 498 654 419 386 q 551 647 526 647 q 609 654 577 647 q 637 544 620 601 q 677 420 654 487 l 770 135 l 872 413 q 911 532 893 472 q 944 654 930 592 q 979 647 970 648 q 1000 647 988 647 q 1052 654 1022 647 q 961 457 1002 555 q 871 235 919 359 q 782 0 824 110 q 755 3 772 0 q 733 6 738 6 q 708 3 724 6 q 686 0 692 0 q 650 127 667 72 q 611 239 632 183 l 518 494 q 432 258 475 382 q 348 0 390 134 q 325 3 336 1 q 297 5 313 5 q 269 3 284 5 q 245 0 254 1 q 162 244 200 140 q 86 447 125 347 q 4 655 47 546 "},"$":{"x_min":89,"x_max":666,"ha":749,"o":"m 139 186 l 146 186 q 213 91 165 119 q 342 50 261 63 l 342 416 q 142 515 196 458 q 89 648 89 573 q 164 819 89 752 q 342 886 239 886 q 330 985 342 936 l 359 979 l 404 984 q 400 924 401 945 q 399 886 399 904 q 510 874 457 886 q 605 834 562 862 q 582 788 592 808 q 555 729 572 768 l 547 729 q 495 810 535 783 q 399 837 455 837 l 399 520 q 610 419 554 479 q 666 277 666 359 q 588 87 666 164 q 399 0 511 9 l 399 -32 q 399 -63 399 -48 q 405 -125 400 -78 l 368 -121 l 329 -125 l 342 0 q 210 13 273 0 q 98 58 147 27 l 139 186 m 342 836 q 237 787 278 826 q 196 686 196 748 q 237 588 196 626 q 342 537 279 551 l 342 836 m 553 231 q 513 337 553 300 q 399 402 473 375 l 399 51 q 512 113 471 66 q 553 231 553 159 "},"\\":{"x_min":-36,"x_max":403.140625,"ha":383,"o":"m -36 1025 l 28 1025 l 403 -125 l 340 -125 l -36 1025 "},"Ι":{"x_min":109,"x_max":271,"ha":385,"o":"m 127 465 q 123 711 127 620 q 109 932 120 803 q 154 927 129 929 q 190 925 179 925 q 238 928 209 925 q 271 931 266 931 q 263 788 271 887 q 256 659 256 690 l 256 448 l 256 283 q 263 135 256 238 q 271 0 271 31 q 231 3 258 0 q 190 8 204 8 q 151 5 172 8 q 109 0 129 2 q 118 239 109 70 q 127 465 127 408 "},"Ύ":{"x_min":-1,"x_max":1204.5625,"ha":1165,"o":"m 758 177 l 758 386 q 651 570 717 458 q 543 750 585 681 q 431 931 501 819 q 483 928 449 931 q 522 925 518 925 q 572 927 550 925 q 606 931 593 930 q 666 800 633 866 q 735 676 699 734 l 849 475 q 968 688 910 575 q 1086 931 1027 801 l 1142 926 q 1174 927 1160 926 q 1204 931 1187 929 q 1014 627 1099 769 l 891 415 l 891 240 q 894 101 891 198 q 897 0 897 5 q 860 4 885 1 q 820 6 835 6 q 778 4 793 6 q 743 0 763 2 q 753 88 748 36 q 758 177 758 140 m 182 943 q 215 974 200 964 q 252 985 231 985 q 289 969 274 985 q 305 932 305 954 q 290 896 305 911 q 248 866 275 882 l 48 743 l -1 743 l 182 943 "},"Ν":{"x_min":98,"x_max":911.890625,"ha":1011,"o":"m 112 230 q 114 486 112 315 q 117 741 117 656 l 117 950 l 166 950 q 326 766 239 865 q 468 606 413 667 q 610 451 524 544 l 821 227 l 821 604 q 816 765 821 685 q 803 931 812 845 l 855 927 l 911 931 q 901 831 906 884 q 897 741 897 779 q 894 413 897 619 q 892 165 892 207 l 892 -15 l 849 -15 q 730 125 796 50 q 589 281 664 201 l 193 702 l 193 330 q 212 -1 193 169 l 149 2 l 98 -1 q 108 125 105 79 q 112 230 112 170 "},"-":{"x_min":58.328125,"x_max":388.890625,"ha":449,"o":"m 58 390 l 388 390 l 388 273 l 58 273 l 58 390 "},"Q":{"x_min":51,"x_max":1074.609375,"ha":1119,"o":"m 566 -14 q 194 113 338 -14 q 51 465 51 241 q 192 820 51 690 q 559 950 333 950 q 892 853 754 950 q 1047 654 1031 756 q 1065 525 1062 551 q 1068 462 1068 499 q 1065 405 1068 429 q 1050 305 1062 381 q 960 144 1038 229 q 748 6 881 59 l 930 -112 q 1004 -161 963 -136 q 1074 -200 1045 -186 q 1008 -228 1035 -214 q 951 -267 980 -243 q 876 -208 912 -234 q 803 -154 841 -182 l 606 -14 l 566 -14 m 202 468 q 290 163 202 283 q 559 43 379 43 q 826 163 738 43 q 915 468 915 284 q 825 770 915 651 q 559 889 735 889 q 348 826 429 889 q 225 638 267 763 q 202 468 202 552 "},"ς":{"x_min":44,"x_max":613.453125,"ha":644,"o":"m 305 -206 q 350 -218 325 -218 q 447 -177 407 -218 q 487 -79 487 -136 q 376 55 487 4 q 159 156 266 106 q 44 365 44 231 q 143 585 44 499 q 380 672 242 672 q 506 658 448 672 q 613 616 564 645 q 587 500 595 559 l 562 500 q 501 586 549 557 q 391 616 453 616 q 233 551 296 616 q 170 393 170 486 q 216 271 170 320 q 339 196 263 223 l 467 149 q 569 76 531 119 q 608 -27 608 34 q 522 -206 608 -136 q 321 -293 437 -276 l 305 -206 "},"M":{"x_min":55,"x_max":1165,"ha":1238,"o":"m 190 950 l 243 950 q 331 772 291 851 q 412 612 370 693 q 504 436 454 532 l 626 214 q 742 435 671 298 q 882 711 813 572 q 1001 950 952 850 l 1052 950 q 1082 649 1067 791 q 1118 341 1098 508 q 1165 0 1139 174 q 1121 8 1139 5 q 1088 11 1103 11 q 1049 6 1071 11 q 1008 0 1027 2 q 998 226 1008 109 q 974 461 989 343 q 944 695 959 579 l 748 312 q 610 0 665 152 l 594 1 l 576 0 q 227 685 402 364 l 188 307 q 172 128 175 179 q 168 0 168 77 q 138 4 157 1 q 110 6 118 6 q 81 4 93 6 q 55 0 68 2 q 121 333 89 168 q 171 652 152 498 q 190 950 190 805 "},"Ψ":{"x_min":73,"x_max":995.609375,"ha":1071,"o":"m 609 0 q 561 5 585 2 q 532 8 536 8 q 494 5 515 8 q 456 0 474 2 q 463 151 456 45 q 470 297 470 258 q 180 383 287 297 q 73 650 73 469 l 73 817 l 73 932 q 139 925 110 925 q 180 928 155 925 q 212 931 206 931 q 200 818 204 861 q 197 723 197 774 l 197 688 l 197 638 q 268 438 197 508 q 472 368 340 368 l 473 481 q 464 736 473 566 q 456 932 456 905 q 499 927 481 929 q 532 925 518 925 q 577 927 557 925 q 609 931 596 930 q 601 635 609 841 q 594 368 594 429 l 645 372 q 816 465 765 372 q 868 691 868 559 q 861 829 868 740 q 855 932 855 919 q 896 927 878 929 q 924 925 913 925 q 971 927 955 925 q 995 931 987 930 l 994 839 l 994 675 q 894 388 994 480 q 594 297 794 297 q 601 142 594 249 q 609 0 609 35 "},"C":{"x_min":51,"x_max":881.5625,"ha":913,"o":"m 828 737 q 552 889 733 889 q 295 768 383 889 q 207 469 207 647 q 299 177 207 305 q 551 50 391 50 q 710 86 637 50 q 855 189 783 122 l 870 183 q 858 122 862 147 q 855 69 855 97 q 521 -15 699 -15 q 180 116 309 -15 q 51 462 51 248 q 189 820 51 690 q 556 950 327 950 q 719 930 638 950 q 881 875 799 911 q 857 809 867 843 q 845 737 847 775 l 828 737 "},"œ":{"x_min":39,"x_max":1195.9375,"ha":1226,"o":"m 359 -15 q 125 76 212 -15 q 39 318 39 167 q 125 571 39 470 q 362 672 212 672 q 514 640 441 672 q 641 551 588 608 q 897 672 741 672 q 1110 593 1024 672 q 1195 390 1195 515 l 1193 331 q 1022 332 1108 331 q 851 334 935 333 l 708 331 q 765 124 708 206 q 944 42 822 42 q 1145 130 1068 42 l 1162 130 q 1155 85 1158 110 q 1151 47 1152 60 q 1036 0 1100 14 q 904 -15 973 -15 q 754 12 819 -15 q 641 106 689 40 q 514 14 584 44 q 359 -15 444 -15 m 376 625 q 224 534 270 625 q 179 328 179 443 q 224 124 179 215 q 369 34 269 34 q 521 127 470 34 q 573 328 573 221 q 526 534 573 443 q 376 625 480 625 m 1061 392 l 1061 423 q 1017 561 1061 504 q 894 618 973 618 q 756 549 805 618 q 708 390 708 480 l 1061 392 "},"!":{"x_min":136,"x_max":312,"ha":449,"o":"m 223 156 q 285 130 259 156 q 312 68 312 105 q 285 8 312 32 q 223 -15 259 -15 q 161 9 187 -15 q 136 68 136 33 q 160 130 136 105 q 223 156 185 156 m 150 752 l 144 841 q 161 919 144 888 q 223 950 178 950 q 282 925 260 950 q 304 863 304 901 q 299 808 304 845 q 295 752 295 770 l 246 250 q 223 250 238 250 q 199 250 206 250 l 150 752 "},"ç":{"x_min":34,"x_max":614.5625,"ha":644,"o":"m 607 119 l 592 41 q 490 -2 549 10 q 363 -15 431 -15 q 130 80 227 -15 q 34 313 34 175 q 132 576 34 480 q 397 672 231 672 q 511 659 456 672 q 614 617 565 647 q 597 558 604 587 q 584 492 589 528 l 570 492 q 507 587 547 553 q 406 622 467 622 q 234 534 293 622 q 176 329 176 447 q 238 126 176 211 q 414 42 300 42 q 592 124 521 42 l 607 119 m 202 -212 q 350 -246 273 -246 q 414 -232 388 -246 q 440 -186 440 -219 q 421 -142 440 -158 q 373 -126 402 -126 l 323 -126 l 323 0 l 367 0 l 367 -77 l 404 -73 q 495 -102 457 -73 q 533 -183 533 -132 q 494 -270 533 -237 q 402 -303 456 -303 q 286 -294 335 -303 q 184 -261 238 -286 l 202 -212 "},"{":{"x_min":116,"x_max":567.390625,"ha":683,"o":"m 491 909 q 421 874 445 909 q 397 792 397 839 l 397 744 l 397 583 q 368 434 397 493 q 263 354 339 376 q 367 272 338 332 q 397 125 397 212 l 397 -35 q 414 -149 397 -108 q 471 -197 431 -191 q 529 -204 511 -204 q 567 -204 548 -204 l 567 -276 q 387 -239 459 -276 q 315 -105 315 -203 l 315 -28 l 315 132 q 296 244 315 194 q 240 303 277 294 q 176 314 204 312 q 116 317 148 317 l 116 389 q 270 429 225 389 q 315 576 315 469 l 315 737 q 348 918 315 870 q 450 977 381 966 q 567 983 503 983 l 567 912 l 491 909 "},"X":{"x_min":0,"x_max":739,"ha":739,"o":"m 200 285 l 318 456 q 18 932 159 718 q 63 929 33 932 q 109 926 94 926 q 168 929 147 926 q 198 932 188 932 q 296 743 244 841 q 391 568 348 644 l 489 726 q 597 932 548 825 q 627 927 614 929 q 661 926 641 926 q 693 929 671 926 q 728 932 715 932 q 616 781 673 862 q 524 652 558 700 l 427 512 q 523 347 480 419 q 614 197 566 275 q 739 0 662 119 q 686 3 719 0 q 647 6 652 6 q 595 4 618 6 q 558 0 572 1 q 459 197 512 97 q 353 398 405 298 l 265 249 q 174 96 193 130 q 127 0 155 62 q 89 3 113 0 q 62 6 65 6 q 26 4 43 6 q 0 0 9 1 l 200 285 "},"ô":{"x_min":40,"x_max":712,"ha":753,"o":"m 371 -15 q 131 79 223 -15 q 40 322 40 173 q 133 572 40 473 q 380 672 227 672 q 621 575 530 672 q 712 327 712 479 q 619 80 712 175 q 371 -15 527 -15 m 332 978 l 421 978 l 572 743 l 525 743 l 376 875 l 229 743 l 180 743 l 332 978 m 377 622 q 227 532 274 622 q 180 327 180 442 q 227 125 180 216 q 375 35 274 35 q 524 124 478 35 q 570 327 570 214 q 524 531 570 441 q 377 622 479 622 "},"#":{"x_min":78,"x_max":972.4375,"ha":1050,"o":"m 497 647 l 675 647 l 791 969 l 877 968 l 761 647 l 972 647 l 948 576 l 736 576 l 671 390 l 896 390 l 873 319 l 644 319 l 531 0 l 446 0 l 559 319 l 382 319 l 266 0 l 182 0 l 294 319 l 78 319 l 102 390 l 320 390 l 386 576 l 151 576 l 176 647 l 410 647 l 526 969 l 610 969 l 497 647 m 472 576 l 407 390 l 587 390 l 650 576 l 472 576 "},"ι":{"x_min":96,"x_max":233.5,"ha":342,"o":"m 104 333 l 104 521 q 103 567 104 545 q 96 655 102 589 q 141 648 130 648 q 165 647 151 647 q 233 654 196 647 q 224 555 226 599 q 223 437 223 511 l 223 406 q 228 194 223 337 q 233 0 233 51 q 201 3 216 1 q 165 5 185 5 q 127 3 148 5 q 96 0 107 1 q 100 165 96 51 q 104 333 104 279 "},"Ά":{"x_min":12,"x_max":910.609375,"ha":896,"o":"m 328 639 l 458 950 q 489 944 464 947 q 522 950 507 944 q 655 613 602 745 q 770 331 709 480 q 910 0 832 181 q 859 3 891 0 q 823 6 827 6 q 772 4 795 6 q 735 0 749 1 q 672 195 692 135 q 613 353 652 255 l 449 358 l 285 353 l 233 205 q 173 0 194 94 l 116 5 q 76 2 91 5 q 55 0 62 0 q 146 211 101 105 q 229 404 192 317 q 328 639 266 490 m 195 943 q 228 974 213 964 q 265 985 244 985 q 302 969 287 985 q 318 932 318 954 q 303 896 318 911 q 261 866 288 882 l 61 743 l 12 743 l 195 943 m 450 419 l 585 425 l 451 761 l 318 425 l 450 419 "},")":{"x_min":65.671875,"x_max":332,"ha":449,"o":"m 332 376 q 271 81 332 217 q 96 -183 211 -54 q 65 -151 83 -164 q 193 104 155 -16 q 232 386 232 226 q 191 661 232 533 q 65 918 150 789 q 96 950 87 933 q 273 681 215 816 q 332 376 332 545 "},"ε":{"x_min":53,"x_max":567,"ha":628,"o":"m 506 516 q 433 591 467 566 q 353 616 400 616 q 261 580 298 616 q 225 492 225 545 q 268 406 225 437 q 372 375 311 375 l 418 375 l 417 349 l 417 310 l 343 317 q 236 282 280 317 q 193 183 193 247 q 238 77 193 117 q 352 38 284 38 q 460 66 410 38 q 543 144 510 94 q 553 99 547 121 q 567 54 558 76 q 452 2 515 19 q 321 -15 388 -15 q 134 31 216 -15 q 53 175 53 78 q 95 286 53 246 q 214 355 137 326 q 127 408 162 370 q 93 497 93 445 q 165 625 93 579 q 323 672 237 672 q 430 654 378 672 q 541 604 481 637 q 522 564 529 584 q 506 516 514 545 "},"Δ":{"x_min":0,"x_max":899,"ha":899,"o":"m 899 0 q 701 5 833 0 q 501 11 569 11 q 251 5 418 11 q 0 0 84 0 q 225 473 126 251 q 407 932 323 696 q 432 929 415 932 q 457 926 448 926 q 482 927 471 926 q 505 932 493 929 q 691 449 601 664 q 899 0 782 234 m 281 429 q 158 90 212 259 q 290 84 201 90 q 423 79 379 79 l 456 79 q 587 81 550 79 q 692 90 625 83 l 651 188 l 576 383 l 422 778 l 281 429 "},"â":{"x_min":43,"x_max":655.5,"ha":649,"o":"m 234 -15 q 98 33 153 -15 q 43 162 43 82 q 106 303 43 273 q 303 364 169 333 q 444 448 437 395 q 403 568 444 521 q 288 616 362 616 q 191 587 233 616 q 124 507 149 559 l 95 520 l 104 591 q 202 651 144 631 q 323 672 261 672 q 500 622 444 672 q 557 455 557 573 l 557 133 q 567 69 557 84 q 618 54 577 54 q 655 58 643 54 l 655 26 q 594 5 626 14 q 537 -6 562 -3 q 438 85 453 -6 q 342 10 388 35 q 234 -15 296 -15 m 279 978 l 368 978 l 522 743 l 471 743 l 323 875 l 176 743 l 126 743 l 279 978 m 176 186 q 204 98 176 133 q 284 64 232 64 q 390 107 342 64 q 438 212 438 151 l 438 345 q 239 293 303 319 q 176 186 176 268 "},"}":{"x_min":114,"x_max":567,"ha":683,"o":"m 369 576 q 405 438 369 487 q 527 389 441 389 l 567 389 l 567 317 q 415 278 461 317 q 369 132 369 239 l 369 -28 q 319 -229 369 -182 q 114 -276 270 -276 l 114 -204 q 252 -172 218 -204 q 286 -83 286 -141 l 286 -35 l 286 125 q 314 271 286 212 q 418 354 342 329 q 311 435 337 382 q 286 584 286 488 l 286 745 q 268 860 286 818 q 191 913 251 903 l 114 913 l 114 983 l 186 982 q 287 960 242 982 q 346 900 331 938 q 365 822 362 862 q 369 737 369 783 l 369 576 "},"Ä":{"x_min":-16,"x_max":839.5625,"ha":826,"o":"m 258 638 l 389 951 q 420 945 395 948 q 453 951 438 945 q 570 651 500 826 q 688 360 640 477 q 839 0 736 242 q 788 3 820 0 q 752 6 756 6 q 702 3 728 6 q 665 0 675 0 q 599 204 615 158 q 542 357 584 251 l 378 357 l 214 357 l 161 207 q 130 109 147 170 q 102 0 113 47 l 45 5 q 20 4 29 5 q -16 0 10 4 q 72 203 29 105 q 169 427 115 301 q 258 638 222 552 m 293 1208 q 345 1186 325 1208 q 366 1133 366 1164 q 345 1080 366 1102 q 293 1058 324 1058 q 239 1080 261 1058 q 217 1133 217 1102 q 239 1185 217 1163 q 293 1208 261 1208 m 535 1208 q 587 1186 565 1208 q 609 1133 609 1164 q 587 1080 609 1103 q 535 1058 565 1058 q 481 1080 503 1058 q 459 1133 459 1102 q 481 1185 459 1163 q 535 1208 503 1208 m 378 421 l 515 425 l 381 762 l 247 425 l 378 421 "},"a":{"x_min":44,"x_max":653.734375,"ha":647,"o":"m 233 -15 q 99 33 154 -15 q 44 162 44 82 q 105 302 44 273 q 302 363 167 331 q 444 448 437 395 q 401 567 444 519 q 287 615 359 615 q 190 587 231 615 q 124 508 149 560 l 95 519 l 103 591 q 204 651 148 631 q 323 672 260 672 q 499 623 443 672 q 555 457 555 574 l 555 132 q 566 70 555 86 q 616 55 578 55 l 653 55 l 653 26 q 594 4 624 15 q 536 -6 564 -6 q 468 15 492 -6 q 436 83 445 38 q 341 9 387 34 q 233 -15 294 -15 m 175 185 q 204 99 175 135 q 282 63 234 63 q 389 106 343 63 q 436 211 436 150 l 436 344 q 239 294 304 320 q 175 185 175 268 "},"=":{"x_min":169.4375,"x_max":969.453125,"ha":1139,"o":"m 969 499 l 169 499 l 169 564 l 969 564 l 969 499 m 969 248 l 169 248 l 169 315 l 969 315 l 969 248 "},"N":{"x_min":98,"x_max":911.890625,"ha":1011,"o":"m 112 230 q 114 486 112 315 q 117 741 117 656 l 117 950 l 166 950 q 326 766 239 865 q 468 606 413 667 q 610 451 524 544 l 821 227 l 821 604 q 816 765 821 685 q 803 931 812 845 l 855 927 l 911 931 q 901 831 906 884 q 897 741 897 779 q 894 413 897 619 q 892 165 892 207 l 892 -15 l 849 -15 q 730 125 796 50 q 589 281 664 201 l 193 702 l 193 330 q 212 -1 193 169 l 149 2 l 98 -1 q 108 125 105 79 q 112 230 112 170 "},"ρ":{"x_min":65,"x_max":711,"ha":758,"o":"m 191 -99 q 195 -235 191 -145 q 199 -371 199 -325 q 161 -367 169 -367 q 134 -366 153 -366 q 96 -368 116 -366 q 65 -372 76 -370 q 70 -190 65 -311 q 76 -8 76 -69 q 73 166 76 67 q 70 329 71 265 q 148 578 70 484 q 380 672 226 672 q 617 573 524 672 q 711 329 711 474 q 625 84 711 184 q 396 -15 539 -15 q 285 7 334 -15 q 191 78 236 30 l 191 -99 m 377 619 q 231 533 271 619 q 191 327 191 447 q 241 103 191 169 q 376 38 292 38 q 525 125 479 38 q 571 326 571 212 q 525 529 571 440 q 377 619 480 619 "},"2":{"x_min":22,"x_max":622,"ha":749,"o":"m 449 648 q 410 789 449 727 q 298 851 371 851 q 173 802 219 851 q 128 676 128 753 l 118 673 q 84 740 100 712 q 47 799 69 768 q 313 911 158 911 q 507 844 426 911 q 589 667 589 777 q 527 479 589 555 q 315 258 466 404 l 169 118 l 442 118 q 531 123 485 118 q 622 136 576 129 q 617 102 619 117 q 616 68 616 87 q 617 37 616 54 q 622 0 619 20 q 438 4 562 0 q 252 8 315 8 q 142 7 195 8 q 22 0 88 6 l 22 40 q 234 238 155 158 q 380 430 312 319 q 449 648 449 541 "},"ü":{"x_min":90,"x_max":664,"ha":754,"o":"m 653 498 q 653 329 653 443 q 653 158 653 215 q 664 0 653 82 q 631 3 647 1 q 598 5 616 5 q 563 3 583 5 q 533 0 544 1 l 538 118 q 440 18 494 52 q 312 -15 385 -15 q 148 50 201 -15 q 96 229 96 115 l 96 354 l 96 516 l 90 655 q 120 650 103 651 q 158 648 136 648 q 192 650 175 648 q 227 656 210 651 q 220 446 227 592 q 213 247 213 300 q 247 115 213 163 q 362 68 281 68 q 477 113 428 68 q 531 217 525 159 q 538 340 538 274 q 533 520 538 394 q 528 655 528 647 q 558 650 542 651 q 596 648 574 648 q 629 650 612 648 q 663 656 646 651 q 653 498 653 574 m 253 929 q 307 906 285 929 q 330 854 330 884 q 309 800 330 822 q 257 778 288 778 q 202 800 225 778 q 180 854 180 823 q 200 906 180 884 q 253 929 221 929 m 498 929 q 549 906 527 929 q 572 854 572 884 q 551 799 572 820 q 499 778 531 778 q 444 800 466 778 q 422 854 422 822 q 444 906 422 884 q 498 929 466 929 "},"Z":{"x_min":6.9375,"x_max":801.390625,"ha":828,"o":"m 6 36 q 222 324 112 176 q 425 605 333 473 l 597 857 l 433 857 q 59 836 247 857 l 65 883 l 59 932 q 262 927 134 932 q 427 922 390 922 q 622 927 491 922 q 801 932 754 932 l 801 904 q 594 629 709 785 q 399 361 479 473 q 201 77 319 249 l 427 77 q 581 82 520 77 q 801 103 643 87 l 797 68 l 795 54 l 797 34 l 801 0 q 504 4 683 0 q 325 8 326 8 q 166 4 272 8 q 6 0 61 0 l 6 36 "},"u":{"x_min":90,"x_max":662.21875,"ha":754,"o":"m 653 497 l 653 156 q 654 83 653 122 q 661 -1 656 44 q 623 3 632 2 q 596 4 615 4 q 572 3 581 4 q 533 -1 563 2 l 536 117 q 439 18 491 51 q 313 -15 386 -15 q 147 48 199 -15 q 96 227 96 112 l 96 352 l 96 516 l 90 654 q 158 647 125 647 q 189 648 178 647 q 226 654 200 650 q 220 450 226 586 q 215 246 215 314 q 248 114 215 163 q 361 66 281 66 q 473 112 426 66 q 527 225 520 158 q 536 340 536 282 q 531 497 536 393 q 527 654 527 601 q 572 647 563 647 q 595 647 581 647 q 626 648 616 647 q 662 654 637 650 l 653 497 "},"k":{"x_min":97,"x_max":677.5625,"ha":683,"o":"m 104 656 q 100 873 104 741 q 97 1025 97 1005 q 164 1018 134 1018 q 231 1025 196 1018 q 227 825 231 962 q 223 622 223 687 l 223 377 l 245 377 q 507 654 391 506 q 563 647 538 647 q 616 647 589 647 q 648 652 638 651 l 349 398 l 548 165 q 608 93 577 127 q 677 19 638 59 l 677 0 q 628 3 659 0 q 591 6 597 6 q 544 3 567 6 q 510 0 520 0 q 438 101 473 54 q 360 197 402 148 l 269 308 l 252 324 l 223 326 q 227 164 223 272 q 231 0 231 55 q 200 4 215 2 q 164 5 185 5 q 127 3 146 5 q 97 0 108 1 q 100 386 97 151 q 104 656 104 620 "},"Η":{"x_min":109,"x_max":928.453125,"ha":1039,"o":"m 257 317 q 262 142 257 253 q 267 0 267 30 q 226 3 253 0 q 188 8 200 8 q 147 3 174 8 q 109 0 121 0 q 116 243 109 72 q 124 465 124 415 q 116 710 124 540 q 109 932 109 880 q 152 929 121 932 q 188 926 183 926 q 231 929 200 926 q 267 932 262 932 q 262 719 267 854 q 257 547 257 584 q 406 544 301 547 q 517 541 511 541 q 666 544 562 541 q 777 547 770 547 q 773 786 777 641 q 769 932 769 930 q 813 929 781 932 q 849 926 845 926 q 893 929 861 926 q 928 932 924 932 q 914 795 920 866 q 909 659 909 723 l 909 505 q 918 252 909 420 q 927 0 927 84 q 887 4 913 0 q 848 8 861 8 q 811 5 829 8 q 769 0 793 2 q 773 103 769 41 q 777 176 777 166 l 777 317 l 777 465 q 604 466 692 465 q 430 469 517 467 l 257 465 l 257 317 "},"Α":{"x_min":-15.28125,"x_max":838.890625,"ha":825,"o":"m 257 639 l 387 950 q 402 945 395 947 q 417 944 409 944 q 452 950 437 944 q 576 629 536 733 q 686 359 617 526 q 838 0 755 192 q 789 3 820 0 q 751 6 758 6 q 700 4 723 6 q 663 0 677 1 q 600 199 622 137 q 543 353 579 260 l 377 358 l 215 353 l 162 205 q 130 110 145 160 q 101 0 115 59 l 44 5 q 6 2 20 5 q -15 0 -8 0 q 76 211 30 105 q 158 404 121 318 q 257 639 195 490 m 378 419 l 513 425 l 379 761 l 246 425 l 378 419 "},"ß":{"x_min":94,"x_max":726,"ha":765,"o":"m 107 431 l 107 611 l 107 761 q 200 948 118 872 q 395 1025 283 1025 q 543 979 478 1025 q 608 852 608 933 q 530 709 608 783 q 453 586 453 636 q 589 457 453 547 q 726 259 726 368 q 648 64 726 143 q 453 -15 570 -15 q 379 -6 418 -15 q 309 15 339 1 l 334 128 l 348 127 q 405 70 368 91 q 485 49 442 49 q 583 92 544 49 q 622 193 622 135 q 484 365 622 280 q 347 525 347 450 q 433 667 347 561 q 520 838 520 773 q 483 939 520 899 q 386 979 446 979 q 269 924 313 979 q 226 795 226 870 l 226 629 l 226 344 q 229 141 226 265 q 233 1 233 18 q 196 4 219 1 q 166 8 173 8 q 123 5 142 8 q 94 1 105 2 q 100 250 94 91 q 107 431 107 409 "},"é":{"x_min":40,"x_max":646.9375,"ha":681,"o":"m 406 42 q 602 130 523 42 l 621 130 q 613 93 617 112 q 609 47 609 73 q 496 0 558 14 q 369 -15 435 -15 q 130 73 220 -15 q 40 311 40 162 q 126 562 40 456 q 355 669 212 669 q 564 590 481 669 q 646 386 646 512 l 644 331 q 438 333 562 331 q 313 335 315 335 l 179 331 q 235 127 179 212 q 406 42 291 42 m 406 945 q 440 976 424 966 q 477 986 455 986 q 528 934 528 986 q 513 895 528 912 q 471 866 498 879 l 272 743 l 222 743 l 406 945 m 513 392 l 513 437 q 470 563 513 509 q 356 618 427 618 q 233 552 271 618 q 183 390 195 487 l 513 392 "},"s":{"x_min":68,"x_max":531,"ha":593,"o":"m 117 161 q 172 69 130 102 q 276 36 214 36 q 378 67 333 36 q 424 152 424 98 q 334 260 424 224 q 168 320 251 290 q 79 460 79 366 q 147 612 79 552 q 310 672 216 672 q 400 660 355 672 q 500 627 446 649 l 461 508 l 448 508 q 401 587 433 561 q 314 614 369 614 q 223 584 262 614 q 185 505 185 555 q 358 375 185 427 q 531 197 531 322 q 450 39 531 93 q 259 -15 369 -15 q 68 23 162 -15 l 103 161 l 117 161 "},"B":{"x_min":109,"x_max":751,"ha":801,"o":"m 127 559 q 109 931 127 759 l 203 929 q 338 932 244 929 q 438 935 432 935 q 629 883 549 935 q 709 726 709 832 q 638 579 709 633 q 464 504 567 524 q 673 438 595 490 q 751 268 751 387 q 639 66 751 133 q 382 0 528 0 l 232 6 q 162 3 211 6 q 109 0 113 0 q 118 287 109 86 q 127 559 127 488 m 256 257 l 256 149 l 261 61 l 337 57 q 526 108 450 57 q 602 266 602 159 q 523 428 602 386 q 312 471 444 471 l 256 471 l 256 257 m 569 706 q 507 834 569 788 q 361 879 446 879 l 261 875 q 252 709 252 798 l 252 522 q 476 558 384 522 q 569 706 569 595 "},"?":{"x_min":128,"x_max":520,"ha":601,"o":"m 307 156 q 367 130 342 156 q 392 68 392 105 q 367 7 392 30 q 307 -15 343 -15 q 244 8 269 -15 q 220 68 220 32 q 244 130 220 105 q 307 156 269 156 m 329 250 q 214 290 261 250 q 168 399 168 331 q 287 595 168 479 q 406 776 406 712 q 371 858 406 823 q 292 894 337 894 q 207 867 243 894 q 162 794 171 840 l 150 794 q 142 835 146 822 q 128 894 139 849 q 210 936 165 922 q 305 950 255 950 q 457 893 394 950 q 520 748 520 837 q 398 550 520 657 q 276 370 276 443 q 293 316 276 337 q 343 296 310 296 q 397 302 372 296 l 383 256 q 357 251 365 252 q 329 250 348 250 "},"H":{"x_min":108,"x_max":927.453125,"ha":1036,"o":"m 258 318 q 263 143 258 255 q 268 0 268 30 q 229 3 255 0 q 188 8 202 8 q 148 3 174 8 q 108 0 121 0 q 117 239 108 70 q 126 465 126 408 q 122 711 126 620 q 108 932 119 803 q 153 928 124 932 q 188 925 183 925 q 231 928 204 925 q 268 932 259 932 q 263 719 268 854 q 258 547 258 584 l 517 543 l 777 547 q 773 786 777 641 q 769 932 769 930 q 814 928 785 932 q 848 925 842 925 q 894 928 864 925 q 927 932 923 932 q 914 798 919 868 q 909 659 909 729 l 909 448 l 909 283 q 916 135 909 238 q 924 0 924 31 q 885 4 911 0 q 846 8 860 8 q 807 4 832 8 q 769 0 781 0 q 773 101 769 37 q 777 177 777 164 l 777 318 l 777 468 q 604 468 720 468 q 431 468 489 468 l 258 468 l 258 318 "},"ν":{"x_min":0,"x_max":632,"ha":654,"o":"m 319 8 q 296 5 309 8 q 272 0 283 2 q 200 206 234 120 q 0 654 165 291 q 84 647 45 647 q 113 647 98 647 q 168 654 127 648 q 252 402 204 529 l 360 131 q 469 358 440 267 q 499 520 499 448 q 492 579 499 543 q 477 641 486 615 q 552 649 527 645 q 613 661 576 652 q 628 611 625 623 q 632 576 632 598 q 621 501 632 536 q 560 373 611 466 q 461 190 509 280 q 372 0 412 99 q 345 3 363 0 q 319 8 327 8 "},"î":{"x_min":-25,"x_max":365.328125,"ha":340,"o":"m 104 144 l 104 522 l 97 655 q 138 650 113 651 q 167 649 162 649 q 233 655 206 649 q 225 506 225 581 q 229 254 225 423 q 233 0 233 84 q 201 3 216 1 q 164 5 186 5 q 127 3 146 5 q 97 0 108 1 l 104 144 m 125 978 l 214 978 l 365 743 l 319 743 l 170 875 l 24 743 l -25 743 l 125 978 "},"c":{"x_min":36,"x_max":613.78125,"ha":644,"o":"m 606 119 l 594 41 q 493 -3 548 7 q 365 -15 438 -15 q 131 79 227 -15 q 36 312 36 173 q 134 576 36 480 q 399 672 233 672 q 513 658 459 672 q 613 616 566 645 q 586 492 597 563 l 571 492 q 510 586 550 553 q 406 619 470 619 q 235 532 294 619 q 176 327 176 445 q 237 125 176 209 q 415 42 299 42 q 594 122 520 42 l 606 119 "},"¶":{"x_min":18,"x_max":531,"ha":590,"o":"m 298 968 l 531 968 l 531 910 l 473 910 l 473 4 l 415 4 l 415 910 l 305 910 l 305 4 l 247 4 l 247 558 q 99 602 163 558 q 27 690 36 645 q 18 744 18 734 q 90 896 18 824 q 298 968 163 968 "},"β":{"x_min":96,"x_max":737.671875,"ha":779,"o":"m 160 -365 q 129 -367 151 -365 q 96 -369 107 -369 q 100 -253 96 -325 q 104 -169 104 -182 l 104 101 l 104 565 q 168 898 104 771 q 419 1025 232 1025 q 605 960 525 1025 q 686 787 686 895 q 641 641 686 705 q 522 548 597 577 q 682 454 626 515 q 737 290 737 394 q 648 73 737 162 q 431 -15 559 -15 q 324 3 372 -15 q 226 61 276 22 q 224 -44 226 19 q 223 -110 223 -107 l 230 -369 q 193 -367 220 -369 q 160 -365 166 -365 m 356 564 q 507 618 458 564 q 557 779 557 673 q 520 917 557 859 q 407 975 483 975 q 279 906 323 975 q 234 752 234 838 q 232 613 234 701 q 230 506 230 524 l 226 355 l 230 230 q 275 94 230 147 q 406 41 321 41 q 552 116 504 41 q 600 297 600 192 q 550 443 600 386 q 412 499 500 499 q 361 497 384 499 q 327 493 337 494 l 329 516 l 329 565 l 356 564 "},"Μ":{"x_min":55,"x_max":1165,"ha":1238,"o":"m 190 950 l 243 950 q 331 772 291 851 q 412 612 370 693 q 504 436 454 532 l 626 214 q 742 435 671 298 q 882 711 813 572 q 1001 950 952 850 l 1052 950 q 1082 649 1067 791 q 1118 341 1098 508 q 1165 0 1139 174 q 1121 8 1139 5 q 1088 11 1103 11 q 1049 6 1071 11 q 1008 0 1027 2 q 998 226 1008 109 q 974 461 989 343 q 944 695 959 579 l 748 312 q 610 0 665 152 l 594 1 l 576 0 q 227 685 402 364 l 188 307 q 172 128 175 179 q 168 0 168 77 q 138 4 157 1 q 110 6 118 6 q 81 4 93 6 q 55 0 68 2 q 121 333 89 168 q 171 652 152 498 q 190 950 190 805 "},"Ό":{"x_min":-1,"x_max":1305,"ha":1356,"o":"m 288 465 q 429 820 288 690 q 796 950 570 950 q 1129 853 991 950 q 1284 654 1268 757 q 1302 525 1299 551 q 1305 462 1305 500 q 1302 402 1305 426 q 1284 277 1299 379 q 1131 80 1268 175 q 797 -15 993 -15 q 684 -10 733 -15 q 541 29 635 -5 q 367 186 447 64 q 288 465 288 308 m 182 943 q 215 974 200 964 q 251 985 230 985 q 289 969 274 985 q 304 932 304 954 q 290 896 304 911 q 247 866 275 882 l 48 743 l -1 743 l 182 943 m 439 468 q 527 162 439 282 q 796 42 616 42 q 1063 162 975 42 q 1152 468 1152 283 q 1062 770 1152 651 q 796 889 972 889 q 585 826 666 889 q 462 639 504 764 q 439 468 439 552 "},"Ή":{"x_min":-1.390625,"x_max":1233.046875,"ha":1341,"o":"m 564 316 q 569 142 564 254 q 574 0 574 30 q 535 4 561 0 q 494 8 508 8 q 454 4 480 8 q 414 0 427 0 q 423 239 414 70 q 432 465 432 408 q 428 711 432 620 q 414 931 425 802 q 459 928 430 931 q 494 924 489 924 q 537 928 510 924 q 574 931 565 931 q 569 719 574 854 q 564 547 564 584 l 823 543 l 1083 547 q 1078 786 1083 641 q 1074 931 1074 930 q 1119 928 1091 931 q 1153 924 1148 924 q 1199 928 1170 924 q 1233 931 1228 931 q 1221 798 1226 868 q 1217 659 1217 729 l 1215 448 l 1217 283 q 1225 135 1217 238 q 1233 0 1233 31 q 1194 4 1220 0 q 1154 8 1167 8 q 1113 4 1140 8 q 1075 0 1087 0 q 1078 100 1075 37 q 1082 176 1082 163 l 1083 316 l 1083 465 q 910 466 1026 465 q 737 468 795 468 l 564 465 l 564 316 m 181 943 q 215 974 200 964 q 251 985 230 985 q 288 969 273 985 q 304 932 304 954 q 289 896 304 911 q 247 866 275 882 l 47 743 l -1 743 l 181 943 "},"¥":{"x_min":32,"x_max":699,"ha":750,"o":"m 313 278 q 176 273 268 278 q 50 268 83 268 l 50 335 q 147 332 82 335 q 246 329 213 329 l 313 329 l 313 436 l 176 436 l 50 432 l 50 495 q 182 492 90 495 q 281 490 275 490 l 126 743 l 32 888 l 91 883 l 191 887 q 225 814 208 845 q 287 699 241 783 l 397 512 q 477 653 433 570 q 592 887 521 736 l 643 883 l 699 887 l 625 773 l 554 655 l 454 490 q 593 492 496 490 q 697 495 690 495 l 697 431 l 434 436 l 434 330 l 572 329 q 636 332 595 329 q 697 335 678 335 l 697 268 l 568 278 l 434 278 q 434 143 434 208 q 442 0 435 77 l 365 5 l 299 0 q 310 131 307 54 q 313 278 313 208 "},"(":{"x_min":114,"x_max":380.5625,"ha":449,"o":"m 114 388 q 175 684 114 545 q 351 950 237 822 q 380 918 361 933 q 253 660 291 782 q 215 379 215 538 q 256 103 215 231 q 380 -151 297 -25 q 351 -183 361 -167 q 173 84 232 -50 q 114 388 114 219 "},"U":{"x_min":101,"x_max":919.0625,"ha":1015,"o":"m 181 926 q 228 929 195 926 q 263 932 262 932 q 251 804 255 853 q 248 697 248 755 l 248 457 q 315 134 248 212 q 515 57 382 57 q 733 129 654 57 q 813 334 813 201 l 813 458 l 813 655 q 810 797 813 733 q 798 931 807 862 q 827 927 813 929 q 859 926 841 926 q 888 929 868 926 q 919 932 907 932 q 905 779 909 853 q 902 600 902 705 l 902 366 q 793 81 902 178 q 492 -15 685 -15 q 211 66 307 -15 q 116 323 116 147 l 116 425 l 116 698 q 109 826 116 759 q 101 931 103 893 q 138 927 120 929 q 181 926 156 926 "},"γ":{"x_min":-12,"x_max":701,"ha":681,"o":"m 642 647 q 701 654 669 647 q 593 440 633 520 q 502 247 553 359 l 411 48 l 411 -90 q 415 -238 411 -138 q 419 -372 419 -337 l 372 -366 q 282 -372 325 -366 q 287 -195 282 -313 q 292 -33 292 -76 q 260 192 292 47 q 170 460 229 338 q 39 583 111 583 l -12 579 l -10 608 l -12 638 q 43 662 14 653 q 101 672 71 672 q 279 554 234 672 q 398 143 324 437 q 496 393 439 244 q 590 654 553 541 q 615 648 607 650 q 642 647 623 647 "},"α":{"x_min":41,"x_max":827.109375,"ha":846,"o":"m 705 352 q 803 -1 763 155 l 739 1 l 673 -1 l 632 172 q 521 36 593 87 q 356 -15 448 -15 q 129 81 217 -15 q 41 316 41 177 q 130 569 41 467 q 368 672 220 672 q 537 622 464 672 q 659 486 610 573 q 711 654 691 569 l 770 650 l 827 654 q 763 505 792 576 q 705 352 734 434 m 377 619 q 226 530 272 619 q 181 326 181 442 q 223 124 181 214 q 367 34 265 34 q 528 137 480 34 q 601 323 577 240 q 527 531 578 444 q 377 619 475 619 "},"F":{"x_min":108,"x_max":613.5625,"ha":671,"o":"m 258 316 q 263 142 258 254 q 268 0 268 30 q 229 3 255 0 q 188 8 202 8 q 148 3 174 8 q 108 0 121 0 q 117 239 108 70 q 126 465 126 408 q 122 711 126 620 q 108 932 119 802 l 358 928 l 613 931 l 610 886 l 613 836 q 505 855 549 851 q 388 860 460 860 l 260 860 l 258 671 l 258 528 l 398 528 q 587 541 480 528 l 584 497 l 587 451 l 394 463 l 258 463 l 258 316 "},"­":{"x_min":0,"x_max":683.328125,"ha":683,"o":"m 0 374 l 683 374 l 683 289 l 0 289 l 0 374 "},":":{"x_min":134,"x_max":309,"ha":446,"o":"m 222 636 q 284 611 259 636 q 309 548 309 586 q 284 486 309 512 q 222 461 260 461 q 160 486 186 461 q 134 548 134 511 q 159 610 134 584 q 222 636 185 636 m 221 156 q 283 131 257 156 q 309 69 309 107 q 284 8 309 32 q 221 -15 259 -15 q 159 9 185 -15 q 134 69 134 33 q 159 131 134 107 q 221 156 185 156 "},"Χ":{"x_min":0,"x_max":739,"ha":739,"o":"m 200 285 l 318 456 q 18 932 159 718 q 63 929 33 932 q 109 926 94 926 q 168 929 147 926 q 198 932 188 932 q 296 743 244 841 q 391 568 348 644 l 489 726 q 597 932 548 825 q 627 927 614 929 q 661 926 641 926 q 693 929 671 926 q 728 932 715 932 q 616 781 673 862 q 524 652 558 700 l 427 512 q 523 347 480 419 q 614 197 566 275 q 739 0 662 119 q 686 3 719 0 q 647 6 652 6 q 595 4 618 6 q 558 0 572 1 q 459 197 512 97 q 353 398 405 298 l 265 249 q 174 96 193 130 q 127 0 155 62 q 89 3 113 0 q 62 6 65 6 q 26 4 43 6 q 0 0 9 1 l 200 285 "},"*":{"x_min":94,"x_max":580,"ha":675,"o":"m 336 940 q 367 944 349 940 q 389 948 385 948 q 368 850 375 902 q 362 747 362 799 q 522 873 442 800 q 548 812 539 829 q 580 778 556 796 q 386 702 485 750 q 476 661 427 680 q 575 629 524 643 q 521 535 539 587 q 441 604 478 573 q 362 661 403 634 q 369 564 362 615 q 391 459 377 513 q 360 463 379 459 q 336 467 340 467 q 306 463 325 467 q 282 459 288 459 q 304 568 296 522 q 313 661 313 615 q 152 535 221 602 q 128 589 138 569 q 97 630 117 608 q 185 661 140 643 q 287 704 231 679 q 189 746 234 728 q 94 777 145 763 q 125 818 113 795 q 150 873 137 841 q 227 805 184 839 q 313 747 269 771 q 309 810 313 784 q 282 950 305 836 q 310 942 297 945 q 336 940 324 940 "},"°":{"x_min":176,"x_max":508,"ha":683,"o":"m 176 889 q 228 1010 176 961 q 355 1060 280 1060 q 460 1011 413 1060 q 508 904 508 962 q 455 785 508 839 q 337 731 402 731 q 222 776 269 731 q 176 889 176 821 m 241 880 q 266 805 241 836 q 336 775 292 775 q 413 811 386 775 q 441 899 441 847 q 417 985 441 952 q 343 1018 393 1018 q 281 995 307 1018 q 247 940 254 973 q 241 880 241 906 "},"V":{"x_min":0,"x_max":852.78125,"ha":853,"o":"m 190 477 l 74 759 l 0 932 l 83 926 q 134 929 98 926 q 173 931 170 931 q 206 829 187 884 q 248 704 224 773 l 308 548 l 454 153 l 586 502 q 729 931 666 713 l 790 927 l 852 931 q 643 467 748 720 q 470 0 538 215 q 445 4 457 1 q 418 6 432 6 q 384 3 399 6 q 366 0 368 0 q 279 256 331 123 q 190 477 226 389 "},"Ξ":{"x_min":58.328125,"x_max":818.0625,"ha":878,"o":"m 437 821 q 258 817 377 821 q 77 813 138 813 q 84 851 83 838 q 84 872 84 864 q 77 932 84 900 q 256 928 137 932 q 437 924 376 924 q 618 928 497 924 q 797 932 738 932 l 791 872 q 794 842 791 861 q 797 813 797 822 q 619 817 738 813 q 437 821 500 821 m 470 430 q 335 425 440 430 q 183 421 230 421 q 187 456 186 433 q 188 481 188 480 q 183 543 188 515 q 304 538 215 543 q 437 533 394 533 q 572 538 481 533 q 694 543 662 543 l 687 482 l 694 421 q 572 425 650 421 q 470 430 494 430 m 437 8 q 250 4 376 8 q 58 0 123 0 l 63 63 l 58 129 q 268 124 134 129 q 437 119 401 119 q 636 124 502 119 q 818 129 769 129 l 813 63 l 818 0 q 627 4 754 0 q 437 8 501 8 "}," ":{"x_min":0,"x_max":0,"ha":375},"Ϋ":{"x_min":-26,"x_max":746,"ha":708,"o":"m 299 177 l 299 387 q 190 577 235 501 q 87 747 146 652 q -26 931 29 841 q 23 929 -13 931 q 65 926 61 926 q 110 929 78 926 q 146 931 143 931 q 208 800 175 866 q 278 676 241 734 l 391 475 q 627 931 519 693 l 683 927 q 721 929 701 927 q 746 931 741 931 q 652 786 702 866 q 557 627 602 705 l 432 415 l 432 241 q 435 97 432 184 q 439 0 439 10 q 395 4 414 2 q 361 6 376 6 q 320 4 336 6 q 286 0 304 2 q 294 88 290 36 q 299 177 299 141 m 233 1208 q 286 1187 265 1208 q 307 1133 307 1166 q 285 1080 307 1103 q 233 1058 263 1058 q 179 1080 202 1058 q 157 1133 157 1103 q 179 1186 157 1164 q 233 1208 202 1208 m 475 1208 q 528 1186 506 1208 q 550 1133 550 1164 q 528 1080 550 1103 q 475 1058 506 1058 q 422 1080 444 1058 q 400 1133 400 1102 q 421 1186 400 1164 q 475 1208 443 1208 "},"0":{"x_min":48,"x_max":699,"ha":749,"o":"m 372 909 q 621 773 544 909 q 699 451 699 637 q 627 116 699 252 q 372 -19 556 -19 q 120 114 193 -19 q 48 444 48 247 q 120 774 48 639 q 372 909 193 909 m 187 365 q 226 137 187 238 q 373 37 266 37 q 457 62 421 37 q 519 142 494 88 q 552 271 545 196 q 559 455 559 346 q 526 736 559 622 q 371 851 493 851 q 245 783 280 851 q 198 647 210 716 q 187 444 187 577 l 187 365 "},"@":{"x_min":78,"x_max":1289,"ha":1367,"o":"m 906 640 l 970 640 l 876 266 l 864 203 q 886 157 864 172 q 940 142 908 142 q 1136 262 1062 142 q 1211 513 1211 383 q 1067 801 1211 693 q 735 909 923 909 q 324 753 495 909 q 154 362 154 598 q 301 1 154 135 q 679 -132 448 -132 q 904 -99 791 -132 q 1105 -6 1016 -67 l 1129 -43 q 923 -150 1033 -113 q 694 -188 812 -188 q 258 -43 439 -188 q 78 350 78 100 q 273 791 78 614 q 737 969 469 969 q 1122 843 955 969 q 1289 507 1289 717 q 1187 214 1289 346 q 930 82 1086 82 q 835 103 879 82 q 792 170 792 124 l 792 203 q 709 116 762 150 q 595 82 655 82 q 439 139 493 82 q 386 302 386 197 q 471 553 386 441 q 692 665 556 665 q 797 639 754 665 q 864 556 840 613 l 906 640 m 849 477 q 796 572 835 535 q 701 609 758 609 q 529 511 592 609 q 467 297 467 413 q 503 184 467 230 q 605 139 540 139 q 733 188 679 139 q 807 313 787 238 l 849 477 "},"Ί":{"x_min":-1.390625,"x_max":580.0625,"ha":690,"o":"m 433 465 q 429 711 433 620 q 414 931 426 802 q 461 927 435 929 q 498 925 487 925 q 546 928 517 925 q 580 931 575 931 q 572 788 580 887 q 564 659 564 690 l 562 448 l 564 283 q 572 135 564 238 q 580 0 580 31 q 539 4 567 0 q 498 8 512 8 q 457 5 480 8 q 414 0 435 2 q 423 239 414 70 q 433 465 433 408 m 181 943 q 215 974 200 964 q 251 985 230 985 q 288 969 273 985 q 304 932 304 954 q 289 896 304 911 q 247 866 275 882 l 47 743 l -1 743 l 181 943 "},"ö":{"x_min":40,"x_max":712,"ha":753,"o":"m 371 -15 q 131 79 223 -15 q 40 322 40 173 q 133 572 40 473 q 380 672 227 672 q 621 575 530 672 q 712 327 712 479 q 619 80 712 175 q 371 -15 527 -15 m 253 929 q 307 906 285 929 q 330 854 330 884 q 309 800 330 822 q 257 778 288 778 q 202 800 225 778 q 180 854 180 823 q 200 906 180 884 q 253 929 221 929 m 498 929 q 549 906 527 929 q 572 854 572 884 q 551 799 572 820 q 499 778 531 778 q 444 800 466 778 q 422 854 422 822 q 444 906 422 884 q 498 929 466 929 m 377 622 q 227 532 274 622 q 180 327 180 442 q 227 125 180 216 q 375 35 274 35 q 524 124 478 35 q 570 327 570 214 q 524 531 570 441 q 377 622 479 622 "},"i":{"x_min":91.765625,"x_max":244,"ha":342,"o":"m 100 144 l 100 520 l 93 654 q 161 648 130 648 q 194 649 182 648 q 229 654 207 650 q 221 579 224 616 q 219 505 219 543 q 224 240 219 417 q 229 0 229 63 q 197 3 212 1 q 161 5 181 5 q 116 2 131 5 q 91 0 100 0 l 100 144 m 168 963 q 223 940 202 963 q 244 881 244 917 q 222 831 244 849 q 168 813 200 813 q 115 833 137 813 q 93 885 93 853 q 113 941 93 919 q 168 963 134 963 "},"Β":{"x_min":109,"x_max":751,"ha":801,"o":"m 127 559 q 109 931 127 759 l 203 929 q 338 932 244 929 q 438 935 432 935 q 629 883 549 935 q 709 726 709 832 q 638 579 709 633 q 464 504 567 524 q 673 438 595 490 q 751 268 751 387 q 639 66 751 133 q 382 0 528 0 l 232 6 q 162 3 211 6 q 109 0 113 0 q 118 287 109 86 q 127 559 127 488 m 256 257 l 256 149 l 261 61 l 337 57 q 526 108 450 57 q 602 266 602 159 q 523 428 602 386 q 312 471 444 471 l 256 471 l 256 257 m 569 706 q 507 834 569 788 q 361 879 446 879 l 261 875 q 252 709 252 798 l 252 522 q 476 558 384 522 q 569 706 569 595 "},"υ":{"x_min":79,"x_max":703,"ha":774,"o":"m 703 397 q 596 110 703 236 q 332 -15 489 -15 q 145 54 211 -15 q 79 244 79 123 l 83 430 q 81 542 83 486 q 79 654 80 598 l 146 650 l 217 654 q 209 503 217 608 q 202 366 202 398 l 202 261 q 240 105 202 168 q 369 43 279 43 q 523 133 476 43 q 571 341 571 223 q 548 493 571 418 q 488 645 526 568 q 550 648 529 645 q 627 659 571 650 q 703 397 703 538 "},"]":{"x_min":83,"x_max":332,"ha":449,"o":"m 209 -154 l 83 -158 l 85 -129 l 85 -98 q 183 -104 128 -104 l 229 -104 l 232 386 l 232 880 l 185 880 q 134 877 162 880 q 83 872 107 874 l 85 903 l 85 932 l 205 929 l 332 929 q 326 852 332 909 q 321 766 321 794 l 321 455 l 321 2 l 332 -158 l 209 -154 "},"m":{"x_min":91,"x_max":1075,"ha":1167,"o":"m 101 155 l 101 494 q 98 568 101 529 q 91 654 96 606 q 155 647 123 647 l 221 654 l 216 537 q 317 638 261 604 q 450 672 373 672 q 629 547 581 672 q 733 639 677 606 q 860 672 789 672 q 1018 606 968 672 q 1069 429 1069 540 l 1069 298 l 1069 136 l 1075 0 q 1038 3 1063 0 q 1006 6 1013 6 q 968 3 992 6 q 938 0 943 0 q 944 203 938 68 q 950 406 950 338 q 918 536 950 486 q 810 587 887 587 q 699 540 745 587 q 648 452 653 493 q 642 376 643 410 q 641 326 641 342 l 641 314 q 644 132 641 258 q 647 0 647 6 q 607 4 621 2 q 581 5 593 5 q 542 2 570 5 q 514 0 515 0 q 519 168 514 55 q 524 321 524 280 l 524 406 q 490 534 524 482 q 383 587 457 587 q 273 541 314 587 q 223 436 231 496 q 216 314 216 376 q 219 133 216 244 q 222 0 222 22 q 183 3 207 0 q 154 6 159 6 q 117 4 134 6 q 91 0 100 1 l 101 155 "},"χ":{"x_min":-1,"x_max":725.390625,"ha":713,"o":"m 500 426 q 554 536 528 476 q 607 654 580 595 l 675 650 l 725 652 q 623 507 672 586 q 519 330 573 427 l 444 197 q 575 -85 507 55 q 719 -371 643 -227 q 665 -371 701 -371 q 611 -371 629 -371 l 560 -371 q 444 -115 497 -230 q 358 72 392 -1 l 255 -95 q 178 -237 208 -174 q 125 -371 147 -299 l 62 -371 l 0 -371 q 125 -192 68 -278 q 240 -5 182 -106 l 324 136 l 201 402 q 146 519 174 460 q 43 587 103 587 l -1 584 l -1 638 q 128 672 57 672 q 222 627 181 672 q 292 522 264 583 l 359 374 l 411 260 l 500 426 "},"8":{"x_min":59,"x_max":689,"ha":749,"o":"m 110 696 q 187 853 110 797 q 370 909 264 909 q 558 854 480 909 q 636 694 636 800 q 589 575 636 621 q 467 510 543 529 l 467 499 q 630 413 572 475 q 689 247 689 351 q 597 51 689 120 q 374 -18 505 -18 q 149 48 239 -18 q 59 247 59 115 q 118 414 59 347 q 281 499 178 480 l 281 510 q 157 570 205 521 q 110 696 110 619 m 371 531 q 472 577 437 531 q 507 693 507 624 q 470 810 507 764 q 366 856 433 856 q 271 807 305 856 q 238 693 238 758 q 271 578 238 625 q 371 531 305 531 m 373 31 q 505 97 461 31 q 550 255 550 164 q 506 415 550 348 q 373 482 462 482 q 239 416 283 482 q 195 255 195 351 q 240 96 195 162 q 373 31 285 31 "},"ί":{"x_min":96,"x_max":429.34375,"ha":342,"o":"m 104 333 l 104 520 q 103 566 104 544 q 96 654 102 588 q 141 647 130 648 q 165 647 151 647 q 233 654 196 647 q 224 555 226 599 q 223 437 223 511 l 223 406 q 228 194 223 337 q 233 0 233 51 q 201 3 216 1 q 165 5 185 5 q 127 3 148 5 q 96 0 107 1 q 100 165 96 51 q 104 333 104 279 m 308 943 q 341 974 326 964 q 377 985 357 985 q 415 969 401 985 q 429 932 429 954 q 414 896 429 912 q 373 866 400 880 l 174 743 l 125 743 l 308 943 "},"Ζ":{"x_min":6.9375,"x_max":801.390625,"ha":828,"o":"m 6 36 q 222 324 112 176 q 425 605 333 473 l 597 857 l 433 857 q 59 836 247 857 l 65 883 l 59 932 q 262 927 134 932 q 427 922 390 922 q 622 927 491 922 q 801 932 754 932 l 801 904 q 594 629 709 785 q 399 361 479 473 q 201 77 319 249 l 427 77 q 581 82 520 77 q 801 103 643 87 l 797 68 l 795 54 l 797 34 l 801 0 q 504 4 683 0 q 325 8 326 8 q 166 4 272 8 q 6 0 61 0 l 6 36 "},"R":{"x_min":109,"x_max":806.234375,"ha":785,"o":"m 261 0 q 223 3 248 0 q 185 8 198 8 q 148 5 168 8 q 109 0 127 2 q 118 306 109 90 q 127 598 127 523 q 122 761 127 672 q 109 931 117 849 l 203 929 l 409 935 q 618 882 529 935 q 708 719 708 830 q 634 559 708 615 q 442 473 560 503 q 620 240 533 355 q 806 0 708 124 l 732 5 l 610 0 q 449 240 529 127 q 283 455 369 353 l 251 455 l 251 307 q 256 138 251 245 q 261 0 261 31 m 570 699 q 504 835 570 791 q 344 879 439 879 l 261 875 q 253 772 255 834 q 251 701 251 709 l 251 504 q 479 542 388 504 q 570 699 570 581 "},"×":{"x_min":203.984375,"x_max":938.015625,"ha":1139,"o":"m 892 775 l 938 729 l 616 406 l 938 86 l 892 38 l 571 361 l 247 38 l 203 86 l 525 407 l 204 729 l 247 775 l 570 453 l 892 775 "},"o":{"x_min":41,"x_max":710,"ha":753,"o":"m 371 -15 q 131 78 222 -15 q 41 322 41 172 q 133 573 41 474 q 378 672 225 672 q 619 574 528 672 q 710 326 710 477 q 617 80 710 175 q 371 -15 525 -15 m 377 619 q 226 530 272 619 q 180 327 180 441 q 227 125 180 216 q 375 35 274 35 q 524 123 478 35 q 570 326 570 211 q 524 529 570 440 q 377 619 479 619 "},"5":{"x_min":75,"x_max":654,"ha":749,"o":"m 116 201 q 176 77 131 120 q 303 35 221 35 q 454 98 396 35 q 512 255 512 161 q 457 407 512 346 q 313 469 403 469 q 170 417 227 469 l 150 428 l 158 526 q 158 662 158 570 q 158 801 158 754 l 147 888 l 383 879 l 412 879 q 628 887 520 879 q 624 848 626 870 q 622 818 622 826 l 626 760 l 425 761 l 227 761 q 221 631 227 717 q 216 500 216 544 q 375 536 296 536 q 572 465 491 536 q 654 279 654 394 q 550 60 654 139 q 304 -18 447 -18 q 179 -6 231 -18 q 75 34 127 4 q 101 201 87 118 l 116 201 "},"7":{"x_min":122.609375,"x_max":729.5625,"ha":749,"o":"m 461 553 l 586 770 l 362 770 q 129 755 232 770 q 133 786 132 769 q 135 820 135 804 q 128 888 135 853 l 408 883 l 729 887 l 729 871 q 463 429 582 641 q 251 0 344 216 l 194 8 q 153 5 169 8 q 122 0 137 2 q 214 146 179 91 q 333 339 249 201 q 461 553 417 477 "},"K":{"x_min":108,"x_max":856.625,"ha":821,"o":"m 255 314 q 261 132 255 250 q 268 0 268 13 q 229 4 255 0 q 188 8 202 8 q 148 4 174 8 q 108 0 121 0 q 117 239 108 70 q 126 465 126 408 q 122 712 126 621 q 108 932 119 803 q 153 928 124 932 q 188 925 183 925 q 231 928 203 925 q 267 932 259 932 l 255 671 l 255 499 q 480 693 375 586 q 687 932 585 800 q 732 932 710 932 q 777 932 753 932 l 837 932 q 606 727 720 830 q 389 522 493 623 q 525 358 465 426 q 666 202 586 290 q 856 0 747 115 l 746 0 q 692 -1 716 0 q 644 -8 669 -2 q 571 92 610 44 q 477 204 532 140 l 255 459 l 255 314 "},",":{"x_min":40.28125,"x_max":272.21875,"ha":374,"o":"m 131 75 q 160 147 144 120 q 213 175 176 175 q 272 119 272 175 q 259 67 272 91 q 231 18 245 43 l 73 -243 l 40 -231 l 131 75 "},"d":{"x_min":55,"x_max":676,"ha":758,"o":"m 668 762 l 672 137 l 676 -1 q 638 3 653 1 q 611 5 623 5 q 574 2 597 5 q 547 -1 551 -1 l 557 119 q 336 -15 484 -15 q 127 86 200 -15 q 55 330 55 187 q 127 569 55 467 q 332 672 199 672 q 457 643 402 672 q 551 556 513 615 l 551 756 l 551 789 l 551 818 q 542 1025 551 927 q 609 1018 576 1018 q 639 1019 628 1018 q 675 1025 651 1020 l 668 762 m 374 57 q 515 139 473 57 q 557 332 557 222 q 513 522 557 437 q 374 607 470 607 q 236 522 278 607 q 194 332 194 438 q 235 141 194 225 q 374 57 277 57 "},"¨":{"x_min":83.71875,"x_max":550.390625,"ha":625,"o":"m 471 659 q 441 593 458 618 q 389 568 424 568 q 350 579 365 568 q 335 613 335 591 q 346 660 335 633 q 371 706 358 687 l 519 950 l 550 940 l 471 659 m 221 659 q 192 593 211 618 q 137 568 174 568 q 83 613 83 568 q 93 658 83 637 q 119 706 103 680 l 268 950 l 300 940 l 221 659 "},"E":{"x_min":108,"x_max":613.5625,"ha":686,"o":"m 126 465 q 122 711 126 620 q 108 932 119 802 l 353 928 l 610 931 l 606 884 l 610 836 q 508 853 562 847 q 408 860 453 860 l 260 860 l 258 671 l 258 528 l 398 528 q 587 541 480 528 l 584 497 l 587 451 l 394 463 l 258 463 l 258 316 l 264 73 q 456 76 380 73 q 613 94 531 80 l 610 47 l 613 0 l 358 4 l 108 0 q 117 239 108 70 q 126 465 126 408 "},"Y":{"x_min":-28,"x_max":746,"ha":707,"o":"m 297 177 l 297 386 q 191 570 256 458 q 84 750 125 682 q -28 932 42 819 q 24 928 -9 932 q 63 925 59 925 q 112 927 91 925 q 146 932 134 930 q 207 800 174 866 q 275 676 239 735 l 389 475 q 509 688 451 575 q 627 932 567 801 l 683 926 q 715 927 701 926 q 746 932 729 929 q 555 627 640 769 l 432 415 l 432 240 q 435 101 432 198 q 438 0 438 5 q 401 4 426 1 q 361 6 376 6 q 319 4 334 6 q 284 0 304 2 q 292 88 288 36 q 297 177 297 140 "},"\"":{"x_min":64,"x_max":315,"ha":379,"o":"m 133 587 l 64 587 l 64 957 l 133 957 l 133 587 m 315 587 l 247 587 l 247 957 l 315 957 l 315 587 "},"ê":{"x_min":40,"x_max":646.9375,"ha":681,"o":"m 406 42 q 602 130 523 42 l 621 130 q 613 93 617 112 q 609 47 609 73 q 496 0 558 14 q 369 -15 435 -15 q 130 73 220 -15 q 40 311 40 162 q 126 562 40 456 q 355 669 212 669 q 564 590 481 669 q 646 386 646 512 l 644 331 q 438 333 562 331 q 314 335 315 335 l 179 331 q 235 127 179 212 q 406 42 291 42 m 296 978 l 386 978 l 537 743 l 488 743 l 340 875 l 193 743 l 143 743 l 296 978 m 513 392 l 513 437 q 470 563 513 509 q 356 618 427 618 q 233 552 271 618 q 183 390 195 487 l 513 392 "},"δ":{"x_min":41,"x_max":670,"ha":710,"o":"m 102 840 q 185 981 102 937 q 375 1025 268 1025 q 497 1010 436 1025 q 621 968 559 995 q 595 876 604 923 q 500 947 547 923 q 393 972 453 972 q 280 937 328 972 q 233 840 233 902 q 272 742 233 794 q 434 627 312 691 q 613 504 556 563 q 670 305 670 445 q 581 75 670 165 q 350 -15 492 -15 q 125 73 210 -15 q 41 305 41 162 q 113 526 41 430 q 306 622 186 622 q 145 726 189 674 q 102 840 102 779 m 356 576 q 221 492 261 576 q 181 302 181 409 q 223 118 181 203 q 356 34 265 34 q 490 116 450 34 q 530 307 530 198 q 489 492 530 409 q 356 576 449 576 "},"έ":{"x_min":53,"x_max":598.828125,"ha":628,"o":"m 506 516 q 433 591 467 566 q 353 616 400 616 q 261 580 298 616 q 225 492 225 545 q 268 406 225 437 q 372 375 311 375 l 418 375 l 417 352 l 417 313 l 343 317 q 237 282 281 317 q 193 185 193 247 q 238 78 193 118 q 352 38 284 38 q 460 66 410 38 q 543 144 510 94 q 553 99 547 121 q 567 54 558 76 q 452 2 515 19 q 321 -15 388 -15 q 134 31 216 -15 q 53 176 53 78 q 96 286 53 246 q 214 355 139 326 q 127 408 162 370 q 93 497 93 445 q 165 625 93 579 q 323 672 237 672 q 430 654 378 672 q 541 604 481 637 q 522 564 529 584 q 506 516 514 545 m 476 944 q 510 975 494 965 q 547 986 526 986 q 584 970 569 986 q 598 933 598 954 q 584 898 598 912 q 541 867 569 884 l 342 744 l 293 744 l 476 944 "},"ω":{"x_min":39.71875,"x_max":1028.9375,"ha":1068,"o":"m 535 526 l 596 528 l 594 305 q 616 117 594 193 q 722 42 638 42 q 850 118 811 42 q 888 293 888 194 q 829 502 888 409 q 664 654 769 594 l 717 648 q 805 654 766 648 q 967 510 905 606 q 1028 304 1028 413 q 948 81 1028 177 q 744 -15 867 -15 q 622 16 678 -15 q 534 104 566 47 q 445 16 500 48 q 323 -15 389 -15 q 118 83 196 -15 q 39 311 39 182 q 100 511 39 419 q 262 654 161 604 q 303 650 278 651 q 349 648 327 648 l 402 654 q 238 501 296 593 q 179 291 179 409 q 218 116 179 191 q 348 42 257 42 q 419 68 390 42 q 461 137 448 94 q 472 216 469 175 q 475 303 475 257 q 472 419 475 353 q 469 528 470 485 l 535 526 "},"´":{"x_min":90.28125,"x_max":305.5625,"ha":374,"o":"m 169 859 q 197 923 177 894 q 250 953 218 953 q 288 939 272 953 q 305 902 305 925 q 295 857 305 882 q 269 811 284 833 l 120 568 l 90 576 l 169 859 "},"±":{"x_min":169,"x_max":969,"ha":1139,"o":"m 602 549 l 969 549 l 969 482 l 602 482 l 602 247 l 534 247 l 534 482 l 169 482 l 169 549 l 534 549 l 534 779 l 602 779 l 602 549 m 969 33 l 169 33 l 169 100 l 969 100 l 969 33 "},"|":{"x_min":305,"x_max":376,"ha":683,"o":"m 376 448 l 305 448 l 305 956 l 376 956 l 376 448 m 376 -233 l 305 -233 l 305 272 l 376 272 l 376 -233 "},"ϋ":{"x_min":79,"x_max":703,"ha":774,"o":"m 703 395 q 595 110 703 236 q 332 -15 488 -15 q 145 54 211 -15 q 79 244 79 123 l 83 429 q 81 542 83 486 q 79 654 80 598 l 146 650 l 217 654 q 209 502 217 608 q 202 365 202 397 l 202 261 q 240 105 202 168 q 369 43 279 43 q 523 132 476 43 q 571 340 571 222 q 548 493 571 418 q 488 645 526 568 q 550 647 529 645 q 627 658 571 650 q 703 395 703 537 m 227 928 q 281 907 259 928 q 304 853 304 886 q 283 800 304 822 q 230 778 262 778 q 175 800 197 778 q 153 853 153 822 q 174 906 153 884 q 227 928 195 928 m 469 928 q 523 906 501 928 q 545 853 545 884 q 524 799 545 821 q 472 778 504 778 q 418 800 440 778 q 396 853 396 822 q 416 905 396 883 q 469 928 437 928 "},"§":{"x_min":64,"x_max":620,"ha":675,"o":"m 114 36 l 128 36 q 198 -76 148 -33 q 319 -120 247 -120 q 430 -78 384 -120 q 476 27 476 -37 q 369 169 476 116 q 170 252 269 210 q 64 419 64 312 q 91 522 64 476 q 171 609 119 568 q 122 739 122 669 q 195 896 122 837 q 369 956 268 956 q 473 940 422 956 q 576 894 523 925 q 559 864 568 882 q 521 775 551 846 l 508 775 q 445 871 483 839 q 343 903 407 903 q 251 867 289 903 q 213 777 213 832 q 318 644 213 694 q 514 563 415 604 q 620 408 620 507 q 592 299 620 348 q 515 213 565 251 q 560 143 544 179 q 576 65 576 108 q 494 -112 576 -46 q 298 -178 412 -178 q 179 -163 239 -178 q 76 -119 120 -148 q 97 -42 86 -89 q 114 36 108 4 m 138 479 q 257 340 138 396 q 478 238 376 285 q 524 285 508 261 q 541 342 541 310 q 384 490 541 423 q 197 587 228 556 q 156 532 175 563 q 138 479 138 501 "},"b":{"x_min":78,"x_max":703,"ha":758,"o":"m 152 1018 q 219 1025 181 1018 q 212 916 214 966 q 210 788 210 866 l 210 755 l 210 555 q 419 672 283 672 q 629 569 555 672 q 703 322 703 466 q 630 79 703 173 q 414 -15 558 -15 q 296 8 350 -15 q 193 79 242 31 q 160 49 175 64 q 120 -1 145 33 l 78 -1 q 87 106 82 43 q 92 213 92 169 l 92 545 q 88 784 92 625 q 85 1025 85 944 q 152 1018 119 1018 m 383 605 q 243 520 285 605 q 202 323 202 435 q 245 133 202 218 q 383 48 288 48 q 522 132 480 48 q 564 326 564 217 q 522 519 564 434 q 383 605 480 605 "},"q":{"x_min":54,"x_max":675,"ha":758,"o":"m 608 -368 q 579 -368 591 -368 q 540 -373 567 -369 q 549 -213 548 -312 q 551 -101 551 -115 l 551 99 q 339 -15 476 -15 q 130 82 207 -15 q 54 316 54 180 q 125 564 54 456 q 333 672 197 672 q 464 636 407 672 q 557 535 520 601 q 546 655 557 594 q 586 649 576 650 q 611 648 597 648 q 674 655 640 648 l 671 433 q 669 163 671 298 q 666 -106 668 27 l 675 -373 q 643 -369 658 -370 q 608 -368 627 -368 m 373 48 q 515 134 473 48 q 557 331 557 220 q 511 514 557 433 q 372 596 466 596 q 234 512 276 596 q 193 322 193 429 q 236 133 193 218 q 373 48 279 48 "},"Ω":{"x_min":8,"x_max":1119.125,"ha":1129,"o":"m 449 0 q 318 4 410 0 q 223 8 227 8 l 10 0 l 13 47 q 11 74 13 59 q 8 95 9 88 q 119 88 69 90 q 249 86 169 86 q 103 261 152 170 q 55 473 55 352 q 200 822 55 694 q 567 950 345 950 q 931 823 791 950 q 1072 473 1072 697 q 1025 261 1072 350 q 878 86 978 173 q 992 91 902 86 q 1119 96 1083 96 l 1114 33 l 1117 0 l 906 8 q 778 4 867 8 q 682 0 688 0 l 682 72 q 864 215 807 122 q 921 451 921 309 q 834 764 921 639 q 565 889 747 889 q 296 767 384 889 q 209 454 209 645 q 268 217 209 319 q 449 72 327 115 l 449 0 "},"ύ":{"x_min":79,"x_max":703,"ha":774,"o":"m 703 395 q 595 110 703 236 q 332 -15 488 -15 q 145 54 211 -15 q 79 244 79 123 l 83 429 q 81 541 83 484 q 79 652 80 597 l 146 648 l 217 652 q 209 502 217 606 q 202 365 202 397 l 202 261 q 240 105 202 168 q 369 43 279 43 q 523 132 476 43 q 571 340 571 222 q 548 491 571 416 q 488 644 526 566 q 550 646 529 644 q 627 656 571 648 q 703 395 703 536 m 499 941 q 532 972 517 962 q 568 983 547 983 q 606 967 592 983 q 620 930 620 952 q 605 894 620 910 q 564 865 590 878 l 365 741 l 316 741 l 499 941 "},"Ö":{"x_min":51,"x_max":1069,"ha":1121,"o":"m 51 465 q 191 819 51 688 q 559 950 332 950 q 891 852 750 950 q 1046 659 1031 755 q 1065 535 1062 562 q 1069 462 1069 508 q 1066 395 1069 416 q 1047 275 1063 373 q 894 80 1031 176 q 562 -15 756 -15 q 451 -8 503 -15 q 304 31 399 -2 q 130 187 209 65 q 51 465 51 308 m 439 1208 q 491 1186 470 1208 q 513 1133 513 1164 q 491 1080 513 1103 q 439 1058 470 1058 q 385 1080 409 1058 q 362 1133 362 1102 q 384 1186 362 1164 q 439 1208 407 1208 m 682 1208 q 735 1186 713 1208 q 757 1133 757 1164 q 735 1080 757 1103 q 682 1058 713 1058 q 628 1079 650 1058 q 607 1133 607 1101 q 628 1186 607 1164 q 682 1208 650 1208 m 204 469 q 292 162 204 283 q 559 42 380 42 q 827 162 739 42 q 916 469 916 283 q 825 767 916 648 q 559 887 735 887 q 349 825 430 887 q 226 638 267 763 q 204 469 204 558 "},"z":{"x_min":15.28125,"x_max":606.9375,"ha":647,"o":"m 15 29 q 164 224 88 124 q 302 416 240 323 l 418 586 l 270 586 q 181 581 218 586 q 62 565 145 577 l 68 609 l 62 654 q 181 648 115 650 q 330 646 248 646 l 363 646 l 393 646 q 606 654 500 646 l 606 626 q 453 428 545 549 q 317 246 361 306 q 194 68 273 185 l 343 68 q 456 72 400 68 q 594 86 513 77 l 588 42 l 594 0 l 280 8 q 148 4 237 8 q 15 0 59 0 l 15 29 "},"™":{"x_min":176,"x_max":918,"ha":1139,"o":"m 463 930 l 346 930 l 346 614 l 293 614 l 293 930 l 176 930 l 176 969 l 463 969 l 463 930 m 736 690 l 840 968 l 918 969 l 918 614 l 871 614 l 871 927 l 752 614 l 719 614 l 594 930 l 594 614 l 548 614 l 548 969 l 625 969 l 736 690 "},"ή":{"x_min":91,"x_max":662,"ha":754,"o":"m 594 -365 q 557 -366 577 -365 q 526 -369 537 -368 q 531 -189 526 -310 q 537 -7 537 -68 l 537 406 q 503 536 537 485 q 391 587 469 587 q 255 508 290 587 q 220 315 220 430 q 222 133 220 259 q 224 1 224 8 l 158 6 l 91 1 l 101 156 l 101 495 q 97 584 101 527 q 93 655 93 640 q 119 650 105 652 q 155 648 134 648 q 185 650 175 648 q 221 655 195 651 l 220 538 q 321 637 265 602 q 452 672 378 672 q 604 603 552 672 q 656 430 656 535 l 656 329 l 656 -186 q 659 -293 656 -227 q 662 -370 662 -359 q 630 -366 645 -368 q 594 -365 614 -365 m 481 944 q 515 975 499 965 q 552 986 531 986 q 589 970 575 986 q 603 933 603 955 q 589 898 603 912 q 547 868 575 884 l 348 744 l 298 744 l 481 944 "},"Θ":{"x_min":51,"x_max":1068,"ha":1119,"o":"m 51 465 q 193 820 51 690 q 562 950 335 950 q 893 852 755 950 q 1047 653 1031 755 q 1065 525 1062 551 q 1068 462 1068 500 q 1065 402 1068 426 q 1047 280 1062 379 q 892 83 1033 182 q 560 -15 751 -15 q 435 -7 480 -15 q 299 32 390 0 q 130 187 209 65 q 51 465 51 308 m 202 468 q 290 163 202 283 q 559 43 379 43 q 826 163 738 43 q 915 468 915 283 q 826 770 915 652 q 559 889 738 889 q 254 720 306 889 q 202 468 202 552 m 560 507 q 683 510 608 507 q 768 514 758 514 l 765 465 l 765 429 q 648 432 730 429 q 558 435 566 435 q 440 432 523 435 q 351 429 357 429 l 353 470 l 353 514 q 474 510 400 514 q 560 507 549 507 "},"®":{"x_min":80,"x_max":1058,"ha":1139,"o":"m 816 905 q 992 726 927 841 q 1058 481 1058 611 q 912 138 1058 283 q 567 -6 766 -6 q 225 139 370 -6 q 80 481 80 284 q 224 826 80 681 q 569 971 368 971 q 816 905 698 971 m 569 918 q 263 788 392 918 q 134 481 134 659 q 261 175 134 306 q 566 45 389 45 q 872 174 741 45 q 1004 478 1004 304 q 947 699 1004 596 q 787 859 890 801 q 569 918 684 918 m 815 619 q 776 521 815 562 q 681 468 738 480 l 809 209 l 709 208 l 592 456 l 462 457 l 462 209 l 376 209 l 376 771 l 581 771 q 745 737 676 771 q 815 619 815 704 m 462 714 l 462 513 l 566 513 q 682 532 635 513 q 729 611 729 551 q 681 692 729 671 q 564 714 634 714 l 462 714 "},"É":{"x_min":109,"x_max":614.5625,"ha":685,"o":"m 124 465 q 116 710 124 540 q 109 932 109 880 l 353 929 l 610 929 q 607 904 607 918 q 607 884 607 891 l 610 838 q 407 860 506 860 l 259 860 l 257 670 l 257 530 l 397 530 q 586 542 492 530 q 584 518 584 530 q 584 499 584 506 q 586 450 584 465 q 487 458 542 454 q 393 463 432 463 l 257 463 l 257 318 l 262 74 q 452 77 381 74 q 614 94 524 80 l 613 47 l 614 0 l 356 0 l 109 0 q 116 243 109 72 q 124 465 124 415 m 426 1225 q 461 1255 445 1244 q 499 1267 478 1267 q 536 1251 522 1267 q 549 1212 549 1236 q 533 1176 549 1192 q 492 1147 517 1160 l 292 1024 l 242 1024 l 426 1225 "},"~":{"x_min":284,"x_max":1080,"ha":1368,"o":"m 850 650 q 667 750 761 650 q 511 850 573 850 q 396 793 431 850 q 362 650 362 737 l 284 650 q 339 846 284 768 q 508 924 395 924 q 697 824 606 924 q 853 725 788 725 q 969 779 936 725 q 1002 924 1002 834 l 1080 924 q 1023 727 1080 805 q 850 650 966 650 "},"Ε":{"x_min":108,"x_max":613.5625,"ha":686,"o":"m 126 465 q 122 711 126 620 q 108 932 119 802 l 353 928 l 610 931 l 606 884 l 610 836 q 508 853 562 847 q 408 860 453 860 l 260 860 l 258 671 l 258 528 l 398 528 q 587 541 480 528 l 584 497 l 587 451 l 394 463 l 258 463 l 258 316 l 264 73 q 456 76 380 73 q 613 94 531 80 l 610 47 l 613 0 l 358 4 l 108 0 q 117 239 108 70 q 126 465 126 408 "},"³":{"x_min":48,"x_max":424,"ha":496,"o":"m 159 636 l 156 663 q 178 661 167 661 q 200 661 189 661 q 280 690 248 661 q 312 767 312 719 q 212 869 312 869 q 143 846 168 869 q 107 781 117 823 l 102 779 q 84 812 93 795 q 66 845 75 830 q 134 886 98 871 q 212 901 171 901 q 341 873 284 901 q 398 778 398 845 q 355 691 398 724 q 252 643 313 658 q 373 610 322 643 q 424 509 424 577 q 353 385 424 427 q 196 343 283 343 q 48 373 117 343 q 57 422 52 391 q 66 469 63 454 l 75 469 q 120 399 88 425 q 199 374 153 374 q 294 409 254 374 q 334 499 334 444 q 299 588 334 553 q 207 623 264 623 q 179 620 193 623 q 156 617 166 618 l 159 636 "},"[":{"x_min":116,"x_max":364.609375,"ha":449,"o":"m 127 2 l 127 386 l 127 769 l 116 932 l 235 929 l 364 929 l 363 908 l 363 872 q 263 880 313 880 l 216 880 l 216 387 l 216 -105 l 264 -105 q 329 -102 308 -105 q 364 -98 351 -99 l 363 -123 l 363 -158 l 237 -154 l 116 -158 q 121 -81 116 -138 q 127 2 127 -24 "},"L":{"x_min":108,"x_max":627.453125,"ha":629,"o":"m 126 465 q 122 712 126 621 q 108 932 119 803 q 149 930 126 932 q 188 926 173 927 q 233 929 202 926 q 268 932 265 932 q 263 797 268 883 q 258 684 258 711 q 261 332 258 577 q 264 73 264 86 l 402 73 q 512 78 458 73 q 627 94 566 84 l 624 47 l 627 0 l 358 4 l 108 0 q 117 239 108 70 q 126 465 126 408 "},"σ":{"x_min":41,"x_max":802.109375,"ha":806,"o":"m 625 644 l 802 651 l 797 611 l 802 566 l 626 573 q 690 464 671 527 q 710 327 710 402 q 616 81 710 177 q 371 -15 522 -15 q 131 78 222 -15 q 41 322 41 172 q 131 572 41 472 q 371 672 221 672 q 439 665 403 672 q 508 653 475 659 q 569 645 541 646 q 625 644 597 644 m 376 619 q 226 530 272 619 q 181 326 181 442 q 224 124 181 213 q 369 35 268 35 q 522 123 474 35 q 570 326 570 211 q 524 529 570 440 q 376 619 479 619 "},"ζ":{"x_min":75,"x_max":675,"ha":683,"o":"m 642 987 l 642 949 q 425 760 524 860 q 260 545 326 661 q 194 303 194 428 q 194 278 194 289 q 202 215 194 267 q 335 141 210 163 q 558 116 447 128 q 675 -7 675 91 q 643 -109 675 -65 q 544 -232 612 -154 l 500 -205 q 565 -113 555 -131 q 576 -66 576 -94 q 552 -20 576 -37 q 292 22 509 2 q 75 240 75 41 q 143 487 75 357 q 297 719 212 616 q 508 949 383 821 l 359 949 q 252 945 301 949 q 130 933 204 941 l 134 977 l 130 1025 q 272 1021 186 1025 q 372 1018 358 1018 q 526 1021 429 1018 q 643 1025 623 1025 l 642 987 "},"θ":{"x_min":48,"x_max":699,"ha":749,"o":"m 375 909 q 621 773 544 909 q 699 456 699 638 q 627 118 699 255 q 372 -19 556 -19 q 120 114 193 -19 q 48 444 48 247 q 122 773 48 638 q 375 909 196 909 m 184 383 q 221 136 184 242 q 374 31 259 31 q 534 137 505 31 q 564 424 564 244 l 408 428 l 184 423 l 184 383 m 371 858 q 257 804 300 858 q 196 673 214 751 q 186 581 189 630 q 184 483 184 532 l 322 478 q 461 480 364 478 q 564 483 558 483 q 528 747 564 637 q 371 858 493 858 "},"Ο":{"x_min":51,"x_max":1068,"ha":1119,"o":"m 51 465 q 192 820 51 690 q 559 950 333 950 q 892 853 754 950 q 1047 654 1031 757 q 1065 525 1062 551 q 1068 462 1068 500 q 1065 402 1068 426 q 1047 277 1062 379 q 894 80 1031 175 q 560 -15 756 -15 q 447 -10 496 -15 q 304 29 398 -5 q 130 186 210 64 q 51 465 51 308 m 202 468 q 290 162 202 282 q 559 42 379 42 q 826 162 738 42 q 915 468 915 283 q 825 770 915 651 q 559 889 735 889 q 348 826 429 889 q 225 639 267 764 q 202 468 202 552 "},"Γ":{"x_min":108,"x_max":627.453125,"ha":629,"o":"m 448 932 l 627 932 q 623 902 624 921 q 621 874 621 883 l 627 836 q 402 863 512 863 l 264 863 q 261 586 264 779 q 258 379 258 393 q 263 181 258 313 q 268 0 268 48 l 187 5 l 108 0 q 121 209 117 106 q 126 427 126 311 q 117 686 126 504 q 108 932 108 869 l 448 932 "}," ":{"x_min":0,"x_max":0,"ha":375},"%":{"x_min":28,"x_max":1011,"ha":1032,"o":"m 799 0 q 647 62 708 0 q 586 218 586 124 q 647 372 586 309 q 799 436 709 436 q 949 373 888 436 q 1011 223 1011 311 q 995 130 1011 176 q 918 35 972 70 q 799 0 865 0 m 863 1015 l 227 -125 l 158 -125 l 793 1015 l 863 1015 m 241 451 q 89 513 150 451 q 28 668 28 576 q 89 823 28 759 q 241 888 150 888 q 391 825 330 888 q 453 673 453 762 q 434 581 453 623 q 359 486 412 521 q 241 451 307 451 m 897 260 q 872 353 897 310 q 798 397 847 397 q 718 340 737 397 q 700 202 700 283 q 719 86 700 133 q 798 40 738 40 q 866 73 840 40 q 892 149 892 106 q 895 206 894 169 q 897 260 897 242 m 339 689 q 312 812 339 775 q 240 849 285 849 q 160 788 179 849 q 141 648 141 728 q 164 541 141 590 q 240 493 188 493 q 307 527 281 493 q 334 602 334 561 q 339 689 339 641 "},"P":{"x_min":109,"x_max":722,"ha":736,"o":"m 127 559 q 109 931 127 759 l 231 927 q 337 931 270 927 q 416 935 403 935 q 632 874 543 935 q 722 694 722 814 q 616 493 722 564 q 371 422 510 422 l 252 422 q 257 200 252 348 q 262 0 262 52 q 224 3 249 0 q 185 8 199 8 q 147 5 168 8 q 109 0 127 2 q 118 287 109 85 q 127 559 127 488 m 576 684 q 515 826 576 773 q 364 879 455 879 l 262 875 q 254 781 257 827 q 252 688 252 735 l 252 476 q 507 530 439 476 q 576 684 576 584 "},"Ώ":{"x_min":-1,"x_max":1355.953125,"ha":1365,"o":"m 685 0 q 555 4 646 0 q 460 8 464 8 l 247 0 l 250 47 q 248 74 250 59 q 244 95 246 88 q 355 88 305 90 q 486 86 405 86 q 340 261 389 170 q 292 473 292 352 q 437 822 292 694 q 804 950 582 950 q 1168 823 1028 950 q 1309 473 1309 697 q 1262 261 1309 350 q 1115 86 1215 173 q 1229 91 1139 86 q 1355 96 1319 96 l 1351 33 l 1354 0 l 1143 8 q 1014 4 1104 8 q 918 0 924 0 l 918 72 q 1100 215 1043 122 q 1158 451 1158 309 q 1071 764 1158 639 q 802 889 984 889 q 533 767 621 889 q 446 454 446 645 q 505 217 446 319 q 685 72 564 115 l 685 0 m 182 943 q 215 974 200 964 q 251 985 230 985 q 289 969 274 985 q 304 932 304 954 q 290 896 304 911 q 247 866 275 882 l 48 743 l -1 743 l 182 943 "},"Έ":{"x_min":-1.390625,"x_max":920.015625,"ha":992,"o":"m 432 465 q 428 711 432 620 q 414 932 425 802 l 660 928 l 917 932 l 912 884 l 917 836 q 814 853 868 847 q 714 860 760 860 l 567 860 l 564 671 l 564 528 l 704 528 q 893 541 786 528 l 890 497 l 893 451 l 700 462 l 564 462 l 564 317 l 570 74 q 762 77 686 74 q 920 94 838 80 l 917 47 l 920 0 l 664 4 l 414 0 q 423 239 414 70 q 432 465 432 408 m 181 943 q 215 974 200 964 q 251 985 230 985 q 288 969 273 985 q 304 932 304 954 q 289 896 304 911 q 247 866 275 882 l 47 743 l -1 743 l 181 943 "},"_":{"x_min":0,"x_max":683.328125,"ha":683,"o":"m 683 -322 l 0 -322 l 0 -256 l 683 -256 l 683 -322 "},"Ϊ":{"x_min":-3,"x_max":388,"ha":386,"o":"m 126 465 q 118 710 126 540 q 111 932 111 880 q 156 929 123 932 q 192 926 190 926 q 238 929 205 926 q 276 932 271 932 q 265 697 276 863 q 255 465 255 530 q 265 230 255 397 q 276 0 276 63 q 233 3 260 0 q 192 8 205 8 q 153 5 176 8 q 111 0 131 2 q 118 243 111 72 q 126 465 126 415 m 73 1208 q 124 1186 102 1208 q 146 1133 146 1164 q 123 1081 146 1105 q 73 1058 101 1058 q 19 1080 42 1058 q -3 1133 -3 1103 q 19 1185 -3 1163 q 73 1208 41 1208 m 313 1208 q 366 1186 344 1208 q 388 1133 388 1164 q 365 1080 388 1103 q 313 1058 342 1058 q 260 1080 283 1058 q 238 1133 238 1103 q 260 1185 238 1163 q 313 1208 282 1208 "},"+":{"x_min":169,"x_max":970,"ha":1139,"o":"m 603 441 l 970 441 l 970 374 l 603 374 l 603 0 l 536 0 l 536 374 l 169 374 l 169 441 l 536 441 l 536 816 l 603 816 l 603 441 "},"½":{"x_min":83,"x_max":1094.125,"ha":1172,"o":"m 250 743 l 245 836 q 181 804 205 818 q 120 768 156 791 q 104 788 117 775 q 83 808 91 801 q 200 851 141 825 q 327 913 259 877 l 336 911 q 331 724 336 850 q 326 551 326 598 l 326 391 q 301 394 319 391 q 280 397 283 397 q 254 394 271 397 q 233 391 238 391 q 246 551 242 473 q 250 743 250 629 m 859 1015 l 929 1015 l 312 -124 l 243 -124 l 859 1015 m 982 363 q 959 443 982 413 q 887 478 936 473 q 821 458 852 478 q 784 407 790 439 l 778 377 l 773 376 q 728 448 753 416 q 899 513 801 513 q 1019 476 967 513 q 1072 374 1072 439 q 955 189 1072 285 q 806 67 838 93 l 978 67 q 1094 79 1039 67 q 1090 63 1092 76 q 1088 41 1088 49 q 1094 3 1088 18 q 981 3 1056 3 q 867 3 906 3 q 791 3 842 3 q 714 3 739 3 l 714 25 q 913 198 844 125 q 982 363 982 270 "},"Ρ":{"x_min":109,"x_max":722,"ha":736,"o":"m 127 559 q 109 931 127 759 l 231 927 q 337 931 270 927 q 416 935 403 935 q 632 874 543 935 q 722 694 722 814 q 616 493 722 564 q 371 422 510 422 l 252 422 q 257 200 252 348 q 262 0 262 52 q 224 3 249 0 q 185 8 199 8 q 147 5 168 8 q 109 0 127 2 q 118 287 109 85 q 127 559 127 488 m 576 684 q 515 826 576 773 q 364 879 455 879 l 262 875 q 254 781 257 827 q 252 688 252 735 l 252 476 q 507 530 439 476 q 576 684 576 584 "},"'":{"x_min":88.890625,"x_max":306.9375,"ha":374,"o":"m 169 858 q 196 923 177 896 q 250 951 215 951 q 289 937 272 951 q 306 903 306 923 q 295 858 306 883 q 269 812 284 833 l 122 568 l 88 576 l 169 858 "},"T":{"x_min":11,"x_max":713,"ha":725,"o":"m 11 839 l 15 884 l 11 932 q 194 927 72 932 q 361 922 316 922 q 544 927 421 922 q 713 932 668 932 q 707 883 707 911 q 707 861 707 870 q 713 834 707 852 q 609 850 666 843 q 504 857 552 857 l 428 857 q 426 767 428 830 q 424 701 424 704 l 428 220 q 442 0 428 122 q 362 8 401 3 q 323 5 344 8 q 282 0 301 2 q 289 132 282 40 q 296 259 296 225 l 296 683 l 296 857 q 11 839 164 857 "},"Φ":{"x_min":50,"x_max":1068,"ha":1119,"o":"m 637 -25 q 559 -15 591 -15 q 527 -17 544 -15 q 483 -25 509 -19 l 487 68 q 181 179 313 68 q 50 465 50 291 q 172 744 50 647 q 487 865 295 842 l 483 958 q 522 952 502 955 q 559 950 543 950 q 596 952 576 950 q 637 958 616 955 l 631 865 q 942 758 816 865 q 1068 465 1068 651 q 944 184 1068 286 q 631 68 820 83 l 637 -25 m 501 502 q 497 677 501 570 q 494 800 494 784 q 278 698 354 786 q 203 466 203 611 q 282 231 203 331 q 494 132 361 132 q 497 363 494 225 q 501 502 501 501 m 915 466 q 839 706 915 612 q 626 800 764 800 q 622 636 626 738 q 618 470 618 533 q 622 301 618 408 q 626 132 626 194 q 839 226 764 132 q 915 466 915 320 "},"j":{"x_min":-55,"x_max":248,"ha":342,"o":"m 113 391 q 106 543 113 444 q 100 654 100 641 q 144 648 135 648 q 167 648 153 648 q 202 649 189 648 q 241 654 214 650 q 237 507 241 595 q 234 405 234 419 l 234 -13 l 234 -109 q 154 -303 234 -234 q -55 -372 74 -372 l -55 -333 q 78 -267 44 -323 q 113 -103 113 -212 l 113 -26 l 113 391 m 171 963 q 226 940 205 963 q 248 881 248 917 q 226 831 248 849 q 171 813 204 813 q 116 833 139 813 q 94 885 94 853 q 115 941 94 919 q 171 963 136 963 "},"Σ":{"x_min":44.4375,"x_max":790.28125,"ha":825,"o":"m 729 883 l 733 835 q 272 855 519 855 q 544 500 391 691 q 372 312 446 399 q 219 119 297 224 l 455 119 q 638 124 522 119 q 790 129 755 129 l 784 86 l 783 68 l 784 42 q 785 25 784 33 q 790 0 786 17 q 558 4 694 0 q 416 8 422 8 q 230 4 350 8 q 44 0 111 0 l 44 50 q 169 182 105 109 q 307 344 232 255 l 406 468 q 242 689 314 594 q 76 899 170 785 l 76 932 q 231 929 123 932 q 345 926 340 926 q 568 929 412 926 q 733 932 723 932 l 729 883 "},"1":{"x_min":72,"x_max":472,"ha":749,"o":"m 334 626 q 331 722 334 655 q 329 793 329 788 q 228 737 278 765 q 133 673 177 709 q 102 713 124 688 q 72 743 80 737 q 274 827 177 780 q 458 935 372 875 l 472 929 q 463 552 472 804 q 455 259 455 300 l 459 0 q 421 5 441 2 q 384 8 401 8 q 349 5 367 8 q 312 0 330 2 q 329 289 324 133 q 334 626 334 445 "},"ä":{"x_min":43,"x_max":655.5,"ha":649,"o":"m 234 -15 q 98 33 153 -15 q 43 162 43 82 q 106 303 43 273 q 303 364 169 333 q 444 448 437 395 q 403 568 444 521 q 288 616 362 616 q 191 587 233 616 q 124 507 149 559 l 95 520 l 104 591 q 202 651 144 631 q 323 672 261 672 q 500 622 444 672 q 557 455 557 573 l 557 133 q 567 69 557 84 q 618 54 577 54 q 655 58 643 54 l 655 26 q 594 5 626 14 q 537 -6 562 -3 q 438 85 453 -6 q 342 10 388 35 q 234 -15 296 -15 m 203 929 q 254 906 232 929 q 277 854 277 884 q 256 799 277 820 q 204 778 236 778 q 149 800 173 778 q 126 854 126 822 q 148 906 126 884 q 203 929 170 929 m 444 929 q 498 906 476 929 q 521 854 521 884 q 500 800 521 822 q 447 778 479 778 q 392 800 415 778 q 370 854 370 823 q 392 906 370 884 q 444 929 414 929 m 176 186 q 204 98 176 133 q 284 64 232 64 q 390 107 342 64 q 438 212 438 151 l 438 345 q 239 293 303 319 q 176 186 176 268 "},"<":{"x_min":176,"x_max":961.109375,"ha":1139,"o":"m 279 406 l 960 130 l 961 56 l 176 379 l 176 432 l 960 756 l 960 682 l 279 406 "},"£":{"x_min":65,"x_max":728.890625,"ha":749,"o":"m 67 47 l 65 98 l 116 101 q 203 168 176 112 q 231 292 231 224 q 227 375 231 330 q 221 444 223 420 q 139 441 171 444 q 76 432 107 439 l 78 479 l 76 503 q 105 495 92 498 q 134 493 117 493 l 219 493 q 212 550 214 522 q 209 609 209 578 q 304 825 209 742 q 537 909 399 909 q 633 896 592 909 q 723 864 673 884 q 666 731 694 809 l 656 731 q 605 825 641 791 q 512 859 570 859 q 383 796 427 859 q 340 646 340 734 l 345 493 l 366 493 q 523 502 450 493 l 521 466 l 526 434 q 438 441 493 439 q 345 444 383 444 l 345 378 q 310 238 345 302 q 213 107 275 173 q 527 113 421 107 q 728 134 633 119 l 721 66 q 728 0 721 34 q 542 3 666 0 q 358 8 419 8 q 176 3 285 8 q 65 0 67 0 l 67 47 "},"¹":{"x_min":82,"x_max":347,"ha":496,"o":"m 255 731 l 255 833 l 123 759 q 104 780 120 763 q 82 801 87 797 q 208 850 148 822 q 337 917 269 878 l 347 912 q 341 721 347 848 q 336 529 336 593 l 336 356 q 311 358 327 356 q 289 361 295 361 q 264 358 280 361 q 242 356 248 356 q 251 498 247 407 q 255 731 255 590 "},"t":{"x_min":18,"x_max":415.21875,"ha":425,"o":"m 18 586 l 22 630 l 18 654 q 133 643 80 643 q 131 732 133 669 q 129 799 129 796 q 199 827 163 811 q 263 863 234 843 q 252 758 255 811 q 250 643 250 705 q 334 645 310 643 q 401 654 358 647 l 398 618 l 401 586 q 248 594 323 594 l 243 258 l 243 162 q 272 76 243 109 q 353 43 301 43 q 387 44 369 43 q 415 48 405 46 l 415 4 q 349 -10 378 -5 q 290 -15 319 -15 q 174 18 221 -15 q 123 118 128 51 l 123 200 l 129 387 l 133 594 q 84 592 113 594 q 18 586 55 590 "},"λ":{"x_min":2.78125,"x_max":652.78125,"ha":657,"o":"m 302 670 q 227 871 262 803 q 111 940 193 940 q 78 937 94 940 q 20 924 62 934 l 20 978 q 96 1012 59 1000 q 170 1025 133 1025 q 329 947 287 1025 q 427 692 372 869 q 538 340 481 515 q 652 1 594 166 l 579 5 l 504 0 q 336 573 423 305 q 218 301 272 438 q 111 0 163 163 l 61 6 q 27 3 48 6 q 2 0 5 0 q 302 670 165 329 "},"ù":{"x_min":90,"x_max":664,"ha":754,"o":"m 653 498 q 653 329 653 443 q 653 158 653 215 q 664 0 653 81 q 631 3 647 1 q 598 5 616 5 q 563 3 583 5 q 533 0 544 1 l 538 118 q 440 18 494 52 q 312 -15 385 -15 q 148 50 201 -15 q 96 229 96 115 l 96 354 l 96 516 l 90 655 q 120 650 103 651 q 158 648 136 648 q 192 650 175 648 q 227 655 210 651 q 220 445 227 591 q 213 247 213 299 q 247 115 213 163 q 362 68 281 68 q 477 113 428 68 q 531 217 525 159 q 538 340 538 274 q 533 520 538 394 q 528 655 528 647 q 561 650 548 651 q 596 648 574 648 q 663 655 628 648 q 653 498 653 573 m 445 743 l 244 866 q 205 896 223 877 q 187 934 187 915 q 202 970 187 955 q 238 986 217 986 q 277 973 256 986 q 309 945 298 961 l 496 743 l 445 743 "},"W":{"x_min":0,"x_max":1306.953125,"ha":1307,"o":"m 0 932 q 47 927 31 929 q 76 926 62 926 q 121 929 88 926 q 155 931 154 931 q 262 547 200 750 l 380 171 q 470 437 415 272 q 552 693 525 602 q 619 931 580 784 l 672 926 q 700 928 684 926 q 726 931 716 930 q 825 604 787 727 q 883 419 862 482 q 969 171 904 357 l 1087 522 q 1143 720 1120 623 q 1187 931 1166 816 q 1221 929 1197 931 q 1247 926 1245 926 q 1280 928 1262 926 q 1306 931 1298 930 q 1131 467 1218 716 q 990 0 1045 217 q 963 4 980 1 q 937 7 947 7 q 904 3 925 7 q 880 0 883 0 q 761 385 831 184 l 641 733 l 491 287 q 402 0 438 133 q 370 3 391 0 q 344 7 350 7 q 315 4 327 7 q 287 0 302 2 q 206 296 252 142 q 122 568 161 450 q 0 932 83 686 "},"ï":{"x_min":-25,"x_max":365.328125,"ha":340,"o":"m 104 144 l 104 522 l 97 655 q 138 650 113 651 q 167 648 162 648 q 233 655 206 648 q 225 506 225 581 q 229 254 225 423 q 233 0 233 84 q 201 3 216 1 q 164 5 186 5 q 128 3 143 5 q 97 0 113 1 l 104 144 m 50 929 q 102 906 80 929 q 125 854 125 884 q 104 799 125 820 q 52 778 84 778 q -2 800 19 778 q -25 854 -25 822 q -4 906 -25 884 q 50 929 16 929 m 290 929 q 343 906 320 929 q 365 854 365 884 q 345 799 365 820 q 294 778 324 778 q 238 800 260 778 q 216 854 216 822 q 237 906 216 884 q 290 929 258 929 "},">":{"x_min":176.390625,"x_max":963,"ha":1139,"o":"m 963 379 l 176 56 l 176 130 l 858 406 l 176 682 l 176 756 l 962 432 l 963 379 "},"v":{"x_min":0,"x_max":658.328125,"ha":654,"o":"m 0 655 q 54 648 38 648 q 86 647 69 647 q 113 647 100 647 q 168 654 127 648 q 252 402 204 529 l 358 134 l 470 436 q 543 654 508 533 q 570 650 554 651 q 600 648 586 648 q 636 648 618 648 q 658 654 652 652 q 506 340 577 502 q 372 0 436 177 q 347 5 362 2 q 319 8 333 8 q 296 5 309 8 q 272 0 283 2 q 200 206 234 120 q 0 655 165 292 "},"τ":{"x_min":30,"x_max":677,"ha":701,"o":"m 423 573 l 419 303 q 423 146 419 250 q 428 0 428 42 q 394 4 410 2 q 359 5 378 5 q 333 4 343 5 q 289 0 323 4 l 298 194 l 294 573 q 156 553 207 573 q 57 472 105 534 q 30 559 49 522 q 149 626 82 609 q 307 644 216 644 l 510 644 q 604 647 545 644 q 677 651 664 651 l 671 610 q 677 566 671 586 q 527 569 618 566 q 423 573 436 573 "},"û":{"x_min":90,"x_max":664,"ha":754,"o":"m 653 498 q 653 328 653 442 q 653 158 653 215 q 664 0 653 81 q 631 3 647 1 q 598 5 616 5 q 563 3 583 5 q 533 0 544 1 l 538 118 q 440 18 494 52 q 312 -15 385 -15 q 148 50 201 -15 q 96 229 96 115 l 96 354 l 96 516 l 90 655 q 120 650 103 651 q 158 648 136 648 q 192 649 175 648 q 227 655 210 651 q 220 445 227 591 q 213 247 213 299 q 247 115 213 163 q 362 68 281 68 q 477 113 428 68 q 531 217 525 159 q 538 340 538 274 q 533 520 538 394 q 528 655 528 647 q 558 650 542 651 q 596 648 574 648 q 629 649 612 648 q 663 655 646 651 q 653 498 653 573 m 332 978 l 421 978 l 572 743 l 525 743 l 376 875 l 227 743 l 180 743 l 332 978 "},"ξ":{"x_min":64,"x_max":654,"ha":656,"o":"m 562 861 q 502 941 539 911 q 414 972 465 972 q 299 917 342 972 q 256 788 256 862 q 312 650 256 701 q 458 599 369 599 l 526 599 l 524 563 l 524 528 q 480 533 503 532 q 427 535 457 535 q 271 494 337 535 q 197 408 205 454 q 187 347 188 361 q 186 326 186 333 q 186 294 186 300 q 190 282 187 287 q 238 200 201 229 q 335 153 276 171 l 494 118 q 610 73 567 100 q 654 -13 654 46 q 628 -103 654 -60 q 511 -238 602 -146 l 466 -210 q 541 -121 530 -139 q 553 -75 553 -103 q 393 16 553 -18 q 149 92 234 50 q 64 276 64 133 q 130 462 64 379 q 299 575 197 544 q 175 652 222 600 q 128 780 128 704 q 213 954 128 883 q 405 1025 298 1025 q 507 1009 458 1025 q 609 965 555 994 q 585 914 600 945 q 562 861 571 883 "},"&":{"x_min":76,"x_max":917.671875,"ha":975,"o":"m 360 -18 q 160 41 245 -18 q 76 211 76 101 q 137 382 76 315 q 314 515 199 448 q 249 618 273 569 q 225 722 225 668 q 287 872 225 812 q 441 932 349 932 q 581 891 520 932 q 643 777 643 851 q 588 640 643 701 q 453 532 533 579 q 568 390 509 459 q 690 253 627 321 q 815 530 792 379 l 829 530 l 887 466 q 814 327 856 396 q 727 209 772 259 q 807 115 760 169 q 917 0 853 61 q 855 1 896 0 q 791 2 813 2 l 739 0 l 649 110 q 515 15 586 48 q 360 -18 445 -18 m 341 475 q 234 380 267 419 q 201 273 201 340 q 258 125 201 190 q 401 61 316 61 q 508 86 458 61 q 606 154 559 111 l 341 475 m 547 770 q 524 854 547 823 q 454 886 502 886 q 363 851 402 886 q 325 769 325 817 q 344 685 325 718 q 422 575 363 652 q 514 661 481 615 q 547 770 547 708 "},"Λ":{"x_min":0,"x_max":852.78125,"ha":853,"o":"m 662 452 l 778 172 l 852 0 l 769 5 q 734 4 747 5 q 679 0 722 4 q 647 102 661 55 q 605 226 633 148 l 547 383 l 401 777 l 266 429 q 191 213 226 319 q 125 0 157 108 l 62 2 l 0 0 q 205 459 95 191 q 380 932 315 726 q 404 927 393 929 q 431 926 416 926 q 459 929 441 926 q 487 932 477 932 q 548 743 511 850 q 662 452 586 637 "},"I":{"x_min":109,"x_max":271,"ha":385,"o":"m 127 465 q 123 711 127 620 q 109 932 120 803 q 154 927 129 929 q 190 925 179 925 q 238 928 209 925 q 271 931 266 931 q 263 788 271 887 q 256 659 256 690 l 256 448 l 256 283 q 263 135 256 238 q 271 0 271 31 q 231 3 258 0 q 190 8 204 8 q 151 5 172 8 q 109 0 129 2 q 118 239 109 70 q 127 465 127 408 "},"G":{"x_min":51,"x_max":942,"ha":1001,"o":"m 581 -15 q 198 107 345 -15 q 51 459 51 229 q 196 815 51 680 q 566 950 342 950 q 755 929 659 950 q 930 869 852 909 q 906 802 916 836 q 895 737 897 769 l 874 737 q 739 855 808 818 q 571 893 670 893 q 305 770 406 893 q 204 479 204 647 q 298 168 204 291 q 577 46 393 46 q 689 56 640 46 q 790 94 738 66 q 794 184 790 123 q 798 251 798 246 q 794 337 798 280 q 790 423 790 394 q 830 417 821 418 q 863 416 838 416 q 901 419 880 416 q 941 425 923 422 l 936 236 q 939 121 936 201 q 942 37 942 41 q 757 -1 843 11 q 581 -15 672 -15 "},"ΰ":{"x_min":79,"x_max":703,"ha":774,"o":"m 703 395 q 595 110 703 236 q 332 -15 488 -15 q 145 54 211 -15 q 79 244 79 123 l 83 430 q 81 542 83 486 q 79 654 80 598 l 146 650 l 217 654 q 209 502 217 608 q 202 365 202 397 l 202 261 q 240 105 202 168 q 369 43 279 43 q 523 132 476 43 q 571 340 571 222 q 548 493 571 418 q 488 645 526 568 q 550 647 529 645 q 627 658 571 650 q 703 395 703 537 m 209 865 q 250 846 232 865 q 269 804 269 828 q 251 761 269 780 q 209 743 234 743 q 166 761 184 743 q 148 804 148 779 q 166 846 148 828 q 209 865 184 865 m 361 929 q 378 969 368 956 q 414 982 388 982 q 458 941 458 982 q 446 904 458 919 l 338 743 l 306 743 l 361 929 m 513 865 q 555 846 537 865 q 573 804 573 828 q 555 761 573 779 q 513 743 537 743 q 470 761 487 743 q 454 804 454 779 q 470 846 454 828 q 513 865 487 865 "},"`":{"x_min":86.5,"x_max":303.171875,"ha":374,"o":"m 222 659 q 194 595 214 622 q 140 568 175 568 q 86 613 86 568 q 96 660 86 636 q 122 706 107 684 l 271 950 l 303 940 l 222 659 "},"Υ":{"x_min":-28,"x_max":746,"ha":707,"o":"m 297 177 l 297 386 q 191 570 256 458 q 84 750 125 682 q -28 932 42 819 q 24 928 -9 932 q 63 925 59 925 q 112 927 91 925 q 146 932 134 930 q 207 800 174 866 q 275 676 239 735 l 389 475 q 509 688 451 575 q 627 932 567 801 l 683 926 q 715 927 701 926 q 746 932 729 929 q 555 627 640 769 l 432 415 l 432 240 q 435 101 432 198 q 438 0 438 5 q 401 4 426 1 q 361 6 376 6 q 319 4 334 6 q 284 0 304 2 q 292 88 288 36 q 297 177 297 140 "},"r":{"x_min":89,"x_max":465.390625,"ha":488,"o":"m 99 120 l 99 400 l 99 433 q 91 654 99 548 q 125 648 114 650 q 162 647 136 647 q 232 654 195 647 q 223 588 226 626 q 220 516 220 550 q 313 628 264 589 q 437 668 362 668 l 465 668 l 459 604 l 465 537 q 427 544 448 541 q 383 551 407 548 q 256 482 292 551 q 220 312 220 413 q 222 131 220 256 q 225 0 225 6 l 157 6 l 89 0 l 99 120 "},"x":{"x_min":1,"x_max":635,"ha":632,"o":"m 264 316 l 158 461 q 78 563 120 508 q 5 655 36 619 q 97 647 51 647 q 141 649 120 647 q 177 654 162 651 q 249 538 214 592 q 334 415 284 484 q 420 533 377 473 q 501 654 464 592 q 523 650 508 652 q 550 647 539 648 q 616 654 582 647 l 371 365 q 477 210 434 267 q 635 0 519 152 q 587 3 616 0 q 551 6 558 6 q 501 4 523 6 q 465 0 479 1 q 380 140 407 98 q 295 264 352 183 q 172 84 194 117 q 123 0 151 51 l 66 5 q 33 2 55 5 q 1 0 10 0 q 131 154 63 72 q 264 316 199 236 "},"è":{"x_min":40,"x_max":646.9375,"ha":681,"o":"m 407 42 q 602 130 523 42 l 621 130 q 613 93 617 112 q 609 47 609 73 q 496 0 558 14 q 369 -15 435 -15 q 130 73 220 -15 q 40 311 40 162 q 126 562 40 456 q 355 669 212 669 q 564 590 481 669 q 646 386 646 512 l 644 331 q 438 333 562 331 q 313 335 315 335 l 179 331 q 235 127 179 212 q 407 42 291 42 m 407 743 l 208 866 q 166 895 183 880 q 149 934 149 911 q 167 967 149 949 q 202 986 185 986 q 243 969 220 986 q 273 945 266 952 l 457 743 l 407 743 m 513 392 l 513 437 q 470 563 513 509 q 356 618 427 618 q 233 552 271 618 q 183 390 195 487 l 513 392 "},"μ":{"x_min":84,"x_max":669.109375,"ha":754,"o":"m 331 -15 q 265 -7 292 -15 q 210 19 238 0 l 208 -128 q 211 -266 208 -178 q 214 -373 214 -354 q 183 -369 198 -370 q 150 -368 168 -368 q 114 -370 133 -368 q 84 -373 95 -372 q 89 -165 84 -304 q 94 43 94 -26 q 89 363 94 149 q 84 655 84 578 q 150 647 118 647 q 219 654 180 647 q 213 495 219 601 q 208 334 208 390 q 232 155 208 227 q 339 75 256 83 q 471 112 419 75 q 531 212 523 150 q 539 332 539 273 q 536 518 539 388 q 533 655 533 648 q 600 647 568 647 q 669 654 629 647 q 660 477 662 566 q 658 257 658 389 q 660 113 658 171 q 669 -1 662 55 l 602 4 l 537 -1 l 539 106 q 449 17 502 50 q 331 -15 397 -15 "},"÷":{"x_min":169,"x_max":969,"ha":1139,"o":"m 641 643 q 618 593 641 615 q 566 571 596 571 q 518 592 538 571 q 498 643 498 613 q 518 692 498 670 q 567 715 539 715 q 610 703 579 715 q 641 643 641 691 m 969 374 l 169 374 l 169 441 l 969 441 l 969 374 m 641 170 q 619 120 641 141 q 570 100 598 100 q 519 120 540 100 q 498 170 498 141 q 518 221 498 199 q 568 243 538 243 q 604 235 584 243 q 632 214 624 227 q 641 170 641 201 "},"h":{"x_min":92,"x_max":665,"ha":758,"o":"m 102 136 l 102 859 q 100 934 102 894 q 94 1025 98 975 q 136 1018 126 1019 q 158 1018 146 1018 q 226 1025 188 1018 q 222 957 223 1001 q 221 888 221 913 l 221 868 l 221 543 q 322 637 264 602 q 450 672 380 672 q 608 606 558 672 q 659 429 659 541 l 659 298 l 659 136 l 665 0 q 633 3 648 1 q 597 5 617 5 q 560 3 580 5 q 529 0 540 1 q 534 202 529 68 q 540 405 540 337 q 503 533 540 481 q 394 586 467 586 q 256 508 291 586 q 221 313 221 430 q 224 133 221 244 q 227 0 227 22 q 188 3 211 0 q 161 6 164 6 q 123 4 137 6 q 92 0 108 2 l 102 136 "},".":{"x_min":100,"x_max":274,"ha":374,"o":"m 187 156 q 248 130 223 156 q 274 68 274 105 q 248 8 274 32 q 187 -15 223 -15 q 125 8 150 -15 q 100 68 100 32 q 125 130 100 105 q 187 156 150 156 "},"φ":{"x_min":39,"x_max":965,"ha":1006,"o":"m 578 -371 q 505 -362 539 -362 q 465 -365 483 -362 q 427 -372 446 -368 q 433 -163 427 -298 q 440 -11 440 -29 q 156 76 274 -11 q 39 327 39 163 q 145 571 39 486 q 410 656 252 656 q 412 635 411 645 q 413 615 413 625 q 235 516 292 580 q 179 327 179 451 q 247 118 179 197 q 442 39 316 39 l 444 197 l 444 311 q 444 400 444 340 q 444 491 444 461 q 514 619 452 570 q 657 668 577 668 q 879 568 794 668 q 965 332 965 469 q 850 84 965 169 q 563 -14 735 0 q 570 -203 563 -71 q 578 -371 578 -334 m 826 347 q 794 534 826 451 q 677 617 763 617 q 592 572 621 617 q 563 470 563 527 l 559 350 l 563 39 q 759 126 693 39 q 826 347 826 213 "},";":{"x_min":72.609375,"x_max":312,"ha":446,"o":"m 224 636 q 287 611 262 636 q 312 548 312 586 q 287 486 312 511 q 224 461 262 461 q 162 486 188 461 q 137 548 137 512 q 162 611 137 586 q 224 636 187 636 m 164 75 q 198 157 182 140 q 244 175 214 175 q 304 119 304 175 q 296 75 304 93 q 262 18 287 56 l 103 -243 l 72 -231 l 164 75 "},"f":{"x_min":12,"x_max":432.546875,"ha":397,"o":"m 127 324 l 127 597 q 66 595 92 597 q 12 588 39 594 l 14 626 l 12 654 q 79 648 38 649 q 127 647 121 647 q 192 901 127 777 q 378 1025 257 1025 q 409 1022 400 1025 q 432 1015 418 1019 l 415 896 q 371 911 395 905 q 325 918 347 918 q 252 886 278 918 q 227 805 227 855 q 235 713 227 760 q 246 647 243 665 q 330 650 276 647 q 396 654 384 654 q 391 642 393 647 q 389 633 389 637 l 388 622 l 389 610 q 396 589 389 609 q 323 595 357 594 q 246 597 289 597 l 246 366 q 250 183 246 305 q 254 0 254 60 q 213 3 238 0 q 183 6 187 6 q 144 4 161 6 q 116 0 127 1 q 121 160 116 52 q 127 324 127 269 "},"A":{"x_min":-15.28125,"x_max":838.890625,"ha":825,"o":"m 257 639 l 387 950 q 402 945 395 947 q 417 944 409 944 q 452 950 437 944 q 576 629 536 733 q 686 359 617 526 q 838 0 755 192 q 789 3 820 0 q 751 6 758 6 q 700 4 723 6 q 663 0 677 1 q 600 199 622 137 q 543 353 579 260 l 377 358 l 215 353 l 162 205 q 130 110 145 160 q 101 0 115 59 l 44 5 q 6 2 20 5 q -15 0 -8 0 q 76 211 30 105 q 158 404 121 318 q 257 639 195 490 m 378 419 l 513 425 l 379 761 l 246 425 l 378 419 "},"6":{"x_min":64,"x_max":692,"ha":749,"o":"m 464 859 q 267 730 324 859 q 210 442 210 602 q 315 514 262 488 q 431 540 367 540 q 618 462 545 540 q 692 270 692 385 q 604 65 692 145 q 390 -15 516 -15 q 142 93 221 -15 q 64 377 64 201 q 167 745 64 581 q 462 909 270 909 q 524 905 501 909 q 579 890 547 902 l 574 827 q 521 851 547 844 q 464 859 495 859 m 554 258 q 510 409 554 347 q 380 471 466 471 q 255 409 300 471 q 210 264 210 348 q 253 105 210 172 q 384 39 297 39 q 485 73 441 39 q 540 148 529 108 q 552 206 551 187 q 554 258 554 225 "},"ϊ":{"x_min":-29,"x_max":362,"ha":342,"o":"m 104 333 l 104 520 q 103 566 104 544 q 96 654 102 588 q 140 647 130 648 q 165 647 151 647 q 232 654 195 647 q 224 555 225 599 q 223 437 223 511 l 223 406 q 228 194 223 337 q 233 0 233 51 q 201 3 216 1 q 165 5 185 5 q 127 3 148 5 q 96 0 107 1 q 100 165 96 51 q 104 333 104 279 m 45 928 q 99 907 77 928 q 122 853 122 886 q 101 800 122 822 q 48 778 80 778 q -6 800 15 778 q -29 853 -29 822 q -7 906 -29 884 q 45 928 13 928 m 286 928 q 340 906 318 928 q 362 853 362 884 q 341 799 362 821 q 289 778 321 778 q 235 800 257 778 q 213 853 213 822 q 233 905 213 883 q 286 928 254 928 "},"π":{"x_min":19,"x_max":957,"ha":989,"o":"m 702 5 l 635 0 q 639 114 635 44 q 643 196 643 185 l 643 575 l 508 575 l 373 575 l 369 284 q 373 143 369 236 q 377 0 377 50 q 345 3 360 1 q 309 5 329 5 q 271 3 292 5 q 239 0 250 1 l 248 196 l 243 575 q 130 553 171 575 q 43 472 89 532 q 19 559 35 519 q 139 627 71 611 q 305 644 207 644 l 658 644 l 852 644 l 957 651 l 951 610 l 957 566 l 769 575 l 765 310 q 769 154 765 257 q 773 0 773 51 q 739 3 755 1 q 702 5 724 5 "},"ά":{"x_min":41,"x_max":827.109375,"ha":846,"o":"m 705 352 q 803 -1 763 155 l 739 1 l 673 -1 l 632 172 q 521 36 593 87 q 356 -15 448 -15 q 129 81 217 -15 q 41 316 41 177 q 130 569 41 467 q 368 672 220 672 q 537 622 464 672 q 659 486 610 573 q 711 654 691 569 l 770 650 l 827 654 q 763 505 792 576 q 705 352 734 434 m 518 943 q 552 974 536 964 q 589 985 568 985 q 626 969 611 985 q 641 932 641 953 q 627 897 641 911 q 585 866 613 883 l 384 743 l 335 743 l 518 943 m 377 619 q 226 530 272 619 q 181 326 181 442 q 223 124 181 214 q 367 34 265 34 q 528 137 480 34 q 601 323 577 240 q 527 531 578 444 q 377 619 475 619 "},"O":{"x_min":51,"x_max":1068,"ha":1119,"o":"m 51 465 q 192 820 51 690 q 559 950 333 950 q 892 853 754 950 q 1047 654 1031 757 q 1065 525 1062 551 q 1068 462 1068 500 q 1065 402 1068 426 q 1047 277 1062 379 q 894 80 1031 175 q 560 -15 756 -15 q 447 -10 496 -15 q 304 29 398 -5 q 130 186 210 64 q 51 465 51 308 m 202 468 q 290 162 202 282 q 559 42 379 42 q 826 162 738 42 q 915 468 915 283 q 825 770 915 651 q 559 889 735 889 q 348 826 429 889 q 225 639 267 764 q 202 468 202 552 "},"n":{"x_min":89,"x_max":661,"ha":754,"o":"m 99 155 l 99 495 q 97 569 99 530 q 91 655 95 608 q 153 648 122 648 l 219 656 l 218 539 q 319 635 260 599 q 451 672 378 672 q 591 624 528 672 q 654 501 654 576 l 654 299 l 654 136 l 661 0 q 629 3 644 1 q 593 5 613 5 q 556 3 576 5 q 525 0 536 1 q 530 222 525 80 q 535 406 535 364 q 501 536 535 485 q 389 587 467 587 q 253 508 288 587 q 218 313 218 430 q 220 132 218 258 q 222 0 222 6 q 184 3 208 0 q 155 6 159 6 q 117 3 141 6 q 89 0 93 0 l 99 155 "},"3":{"x_min":75,"x_max":644,"ha":749,"o":"m 241 465 l 238 512 l 294 510 q 424 554 375 510 q 474 680 474 599 q 434 805 474 754 q 322 856 394 856 q 220 818 257 856 q 164 711 183 780 l 153 706 q 127 767 136 747 q 99 819 118 788 q 220 886 162 863 q 348 909 278 909 q 526 857 450 909 q 603 706 603 805 q 542 564 603 617 q 383 479 482 511 q 567 423 490 479 q 644 262 644 366 q 542 55 644 129 q 302 -18 441 -18 q 183 -6 240 -18 q 75 32 127 5 q 99 189 91 116 l 113 188 q 182 73 136 115 q 302 31 229 31 q 448 92 392 31 q 505 246 505 154 q 451 389 505 333 q 312 446 398 446 q 238 435 279 446 l 241 465 "},"9":{"x_min":57,"x_max":688,"ha":749,"o":"m 261 38 q 475 166 405 38 q 546 451 546 295 q 442 378 494 403 q 325 354 389 354 q 132 428 208 354 q 57 617 57 502 q 148 828 57 748 q 372 909 240 909 q 612 801 536 909 q 688 520 688 693 q 574 143 688 305 q 252 -18 461 -18 q 186 -14 211 -18 q 127 0 161 -11 l 113 90 q 180 51 143 64 q 261 38 218 38 m 372 419 q 501 482 457 419 q 546 634 546 545 q 504 790 546 725 q 373 855 462 855 q 238 791 284 855 q 193 637 193 727 q 238 482 193 545 q 372 419 284 419 "},"l":{"x_min":100,"x_max":237.5,"ha":342,"o":"m 107 118 l 107 881 q 104 965 107 915 q 101 1025 101 1016 q 169 1018 138 1018 q 237 1025 203 1018 q 228 872 230 948 q 226 684 226 797 l 226 512 l 232 111 l 237 0 q 205 3 220 1 q 169 5 189 5 q 131 3 152 5 q 100 0 111 1 l 107 118 "},"κ":{"x_min":97,"x_max":677.5625,"ha":683,"o":"m 104 365 q 100 531 104 428 q 97 655 97 634 q 164 647 134 647 q 231 654 196 647 q 227 516 231 608 q 223 377 223 425 l 258 377 q 386 498 323 431 q 528 654 449 565 q 588 647 563 647 q 640 647 613 647 q 672 652 662 651 l 358 387 l 548 165 q 608 93 577 127 q 677 19 638 59 l 677 0 q 628 3 659 0 q 591 6 596 6 q 544 3 567 6 q 510 0 520 0 q 437 100 477 47 q 360 196 398 153 l 269 308 l 252 323 l 223 326 q 227 163 223 274 q 231 0 231 52 l 164 5 l 97 0 q 100 208 97 77 q 104 365 104 339 "},"4":{"x_min":39,"x_max":691.78125,"ha":749,"o":"m 453 252 l 177 257 l 39 253 l 39 291 q 204 522 111 392 q 345 721 297 653 q 475 906 394 789 l 527 906 l 581 906 q 575 805 581 872 q 569 705 569 739 l 569 343 l 598 343 q 644 344 620 343 q 690 350 667 345 l 683 297 q 686 270 683 287 q 691 244 689 254 q 568 253 629 253 l 568 137 l 569 0 l 505 6 l 437 0 q 450 120 447 51 q 453 252 453 190 m 453 767 l 344 626 q 230 465 298 562 q 144 343 162 368 l 453 343 l 453 767 "},"p":{"x_min":83,"x_max":702,"ha":758,"o":"m 91 -106 q 89 202 91 47 q 87 513 88 358 l 83 655 q 109 650 95 652 q 146 648 124 648 q 177 650 165 648 q 213 655 188 651 q 202 535 202 591 q 297 637 246 602 q 425 672 349 672 q 630 567 558 672 q 702 322 702 463 q 629 84 702 183 q 423 -15 556 -15 q 210 99 287 -15 l 210 -101 q 214 -244 210 -148 q 219 -373 219 -340 q 185 -369 201 -370 q 151 -368 170 -368 q 130 -368 138 -368 q 83 -373 123 -368 q 87 -240 83 -329 q 91 -106 91 -151 m 384 596 q 245 514 289 596 q 202 328 202 433 q 244 134 202 220 q 383 48 286 48 q 520 131 478 48 q 563 322 563 215 q 519 509 563 423 q 384 596 475 596 "},"ψ":{"x_min":78,"x_max":1002,"ha":1038,"o":"m 78 294 l 82 477 l 82 654 l 145 650 l 215 654 q 209 517 215 605 q 203 421 203 430 l 203 341 q 264 117 203 197 q 465 38 325 38 l 468 260 q 461 535 468 342 q 455 786 455 729 q 496 779 479 782 q 526 776 513 776 q 566 780 545 776 q 600 786 587 784 q 591 496 600 690 q 583 270 583 302 l 587 38 q 791 132 715 38 q 867 357 867 227 q 824 641 867 506 q 885 645 857 641 q 960 656 912 648 q 1002 419 1002 544 q 891 118 1002 231 q 587 -13 780 5 l 591 -221 l 600 -372 q 561 -365 578 -367 q 526 -363 543 -363 q 491 -366 511 -363 q 455 -372 471 -369 q 461 -162 455 -302 q 468 -13 468 -22 q 194 64 310 -13 q 78 294 78 142 "},"Ü":{"x_min":101,"x_max":919.0625,"ha":1015,"o":"m 182 927 l 262 931 q 250 805 253 854 q 247 697 247 757 l 247 457 q 314 136 247 212 q 516 60 381 60 q 733 130 654 60 q 813 336 813 201 l 813 458 l 813 657 q 799 931 813 802 l 859 927 l 919 931 q 905 770 909 863 q 901 600 901 677 l 901 366 q 792 82 901 179 q 491 -15 684 -15 q 211 66 307 -15 q 116 325 116 148 l 116 426 l 116 698 q 112 805 116 757 q 101 931 109 854 l 182 927 m 410 1208 q 462 1186 442 1208 q 483 1133 483 1164 q 460 1081 483 1105 q 410 1058 438 1058 q 356 1080 379 1058 q 334 1133 334 1103 q 356 1185 334 1163 q 410 1208 378 1208 m 650 1208 q 704 1187 682 1208 q 727 1133 727 1166 q 704 1080 727 1103 q 650 1058 681 1058 q 598 1078 620 1058 q 576 1133 576 1099 q 598 1185 576 1163 q 650 1208 620 1208 "},"à":{"x_min":43,"x_max":655.5,"ha":649,"o":"m 234 -15 q 98 33 153 -15 q 43 162 43 82 q 106 303 43 273 q 303 364 169 333 q 444 448 437 395 q 403 568 444 521 q 288 616 362 616 q 191 587 233 616 q 124 507 149 559 l 95 520 l 104 591 q 202 651 144 631 q 323 672 261 672 q 500 622 444 672 q 557 455 557 573 l 557 133 q 567 69 557 84 q 618 54 577 54 q 655 58 643 54 l 655 26 q 594 5 626 14 q 537 -6 562 -3 q 438 85 453 -6 q 342 10 388 35 q 234 -15 296 -15 m 392 743 l 191 866 q 152 896 170 877 q 133 934 133 915 q 148 970 133 955 q 186 986 163 986 q 222 972 200 986 q 254 945 245 958 l 442 743 l 392 743 m 176 186 q 204 98 176 133 q 284 64 232 64 q 390 107 342 64 q 438 212 438 151 l 438 345 q 239 293 303 319 q 176 186 176 268 "},"η":{"x_min":91,"x_max":662,"ha":754,"o":"m 594 -365 q 557 -366 577 -365 q 526 -369 537 -368 q 531 -189 526 -310 q 537 -7 537 -68 l 537 406 q 503 536 537 485 q 391 587 469 587 q 255 508 290 587 q 220 315 220 430 q 222 133 220 259 q 224 1 224 8 l 158 6 l 91 1 l 101 156 l 101 495 q 97 584 101 527 q 93 655 93 640 q 119 650 105 652 q 155 648 134 648 q 185 650 175 648 q 221 655 195 651 l 220 538 q 321 637 265 602 q 452 672 378 672 q 604 603 552 672 q 656 430 656 535 l 656 329 l 656 -186 q 659 -293 656 -227 q 662 -370 662 -359 q 630 -366 645 -368 q 594 -365 614 -365 "}}}
